<?xml version="1.0" encoding="UTF-8" standalone="no"?>
<svg
   xmlns:dc="http://purl.org/dc/elements/1.1/"
   xmlns:cc="http://creativecommons.org/ns#"
   xmlns:rdf="http://www.w3.org/1999/02/22-rdf-syntax-ns#"
   xmlns:svg="http://www.w3.org/2000/svg"
   xmlns="http://www.w3.org/2000/svg"
   xmlns:sodipodi="http://sodipodi.sourceforge.net/DTD/sodipodi-0.dtd"
   xmlns:inkscape="http://www.inkscape.org/namespaces/inkscape"
   width="128"
   height="128"
   viewBox="0 0 33.866666 33.866667"
   version="1.1"
   id="svg8"
   inkscape:version="1.0.1 (3bc2e813f5, 2020-09-07)"
   sodipodi:docname="propellerBW.svg">
  <title
     id="title833">propellerBW</title>
  <defs
     id="defs2" />
  <sodipodi:namedview
     id="base"
     pagecolor="#ffffff"
     bordercolor="#666666"
     borderopacity="1.0"
     inkscape:pageopacity="0.0"
     inkscape:pageshadow="2"
     inkscape:zoom="6.7734375"
     inkscape:cx="64"
     inkscape:cy="63.33564"
     inkscape:document-units="mm"
     inkscape:current-layer="layer1"
     inkscape:document-rotation="0"
     showgrid="false"
     inkscape:window-width="1755"
     inkscape:window-height="1046"
     inkscape:window-x="154"
     inkscape:window-y="-11"
     inkscape:window-maximized="1"
     units="px"
     fit-margin-top="0"
     fit-margin-left="0"
     fit-margin-right="0"
     fit-margin-bottom="0" />
  <metadata
     id="metadata5">
    <rdf:RDF>
      <cc:Work
         rdf:about="">
        <dc:format>image/svg+xml</dc:format>
        <dc:type
           rdf:resource="http://purl.org/dc/dcmitype/StillImage" />
        <dc:title>propellerBW</dc:title>
      </cc:Work>
    </rdf:RDF>
  </metadata>
  <g
     inkscape:label="Capa 1"
     inkscape:groupmode="layer"
     id="layer1">
    <path
       style="display:inline;fill:#000000;stroke-width:0.0407074"
       d="M 14.234336,29.977114 C 7.5731467,29.780339 2.4018631,28.890852 1.8632138,27.849219 c -0.056785,-0.109809 -0.062711,-0.247223 -0.043451,-1.00764 0.017311,-0.6835 0.036469,-0.90789 0.085634,-1.002964 0.034833,-0.06736 0.1017518,-0.385896 0.1487075,-0.707857 0.7207211,-4.941775 3.396825,-9.276271 7.2947401,-11.815319 1.3147196,-0.856391 2.8311406,-1.521441 4.2746746,-1.874724 0.6155,-0.150635 1.383869,-0.287628 1.822769,-0.324983 l 0.875934,-0.109284 -0.945056,0.164754 c -3.923849,0.684054 -7.0843484,4.615148 -8.6227785,9.975524 -0.3113822,1.084954 -0.7310919,3.128046 -0.6576726,3.201466 0.01219,0.01219 0.3668488,-0.025 0.7881307,-0.08263 C 8.0635,24.104303 8.2400477,24.08343 9.1569883,23.996934 10.239103,23.894857 11.532526,23.802596 12.380892,23.76697 l 0.659335,-0.02769 0.02091,-0.207563 c 0.0115,-0.11416 0.04972,-0.58309 0.08492,-1.042067 0.439922,-5.735218 1.696224,-10.225972 3.138664,-11.219419 l 0.217372,-0.149712 -0.179871,-0.114071 c -0.195975,-0.124284 -0.350682,-0.334267 -0.428996,-0.582272 -0.067,-0.212161 -0.03056,-0.6176505 0.0739,-0.8224109 0.09798,-0.19205 0.341001,-0.4234542 0.524574,-0.4994934 L 16.620603,9.0488797 16.444498,8.8795278 C 16.124272,8.5715784 16.109056,8.1254467 16.408268,7.817353 c 0.07757,-0.07987 0.158469,-0.1452171 0.179781,-0.1452171 0.02182,0 0.03875,-0.1697948 0.03875,-0.3886592 V 6.8948172 L 16.417563,6.6855759 16.208322,6.4763345 15.186163,6.7061525 C 14.623975,6.8325523 13.590098,7.065232 12.888658,7.2232185 8.6814448,8.1708153 6.3864969,8.5004544 4.0074963,8.4988802 2.2943571,8.497747 1.5718115,8.3912653 1.0154988,8.0579498 0.32046173,7.641517 -0.08996309,6.8913944 0.01714657,6.2332873 0.12115999,5.5942043 0.58650637,5.1564539 1.396377,4.9358479 1.6657388,4.8624749 1.8305311,4.8505466 2.623443,4.84703 3.710011,4.84221 3.8044911,4.85489 6.0835761,5.311385 8.670908,5.8296203 9.8428747,5.9819607 12.026863,6.0839347 c 0.934889,0.043651 2.883868,0.046443 3.677783,0.00527 l 0.482248,-0.025012 0.05366,-0.1565125 c 0.09975,-0.2909783 0.408156,-0.5133723 0.711914,-0.5133723 0.252828,0 0.619879,0.2311175 0.698311,0.4396973 0.0077,0.020581 0.407915,-0.051793 0.88928,-0.1608306 5.360501,-1.2142415 6.703722,-1.4712657 9.037053,-1.7292322 0.904199,-0.099966 3.114575,-0.1234751 3.889876,-0.041373 0.703057,0.074452 0.942543,0.1358703 1.340908,0.3438867 0.393394,0.2054195 0.722418,0.5440254 0.909685,0.9361703 0.138989,0.2910499 0.148833,0.3372375 0.148833,0.6983823 0,0.3398908 -0.01362,0.4144469 -0.112442,0.6156814 -0.208223,0.4240001 -0.66561,0.7532664 -1.271612,0.9154148 -0.242251,0.064819 -0.434403,0.07613 -1.282285,0.07548 C 30.062119,7.4867069 29.955664,7.4725676 28.01209,7.0640282 26.622237,6.7718814 25.921692,6.6471074 24.931124,6.5152778 23.193182,6.2839843 21.095163,6.181527 19.037821,6.2274769 l -1.313715,0.029342 -0.08589,0.1996496 c -0.05067,0.1177883 -0.150449,0.2507834 -0.243345,0.3243586 l -0.157458,0.1247093 v 0.3596259 0.3596263 l 0.133849,0.082724 c 0.196226,0.1212746 0.324974,0.3753141 0.322626,0.6365917 -0.0023,0.2556553 -0.08188,0.4253199 -0.269836,0.5752963 l -0.138515,0.1105244 0.210006,0.1253358 c 0.678762,0.4050989 0.719671,1.4214392 0.07465,1.8546382 l -0.166055,0.111524 0.216713,0.149255 c 1.268676,0.873771 2.390501,4.424232 2.953151,9.346427 0.09783,0.855823 0.244753,2.545505 0.246009,2.829168 4.61e-4,0.111946 0.01436,0.223015 0.03081,0.246823 0.01801,0.02607 0.418465,0.06289 1.006884,0.09258 2.008521,0.101345 3.463897,0.242852 5.773676,0.561377 l 0.196754,0.02713 -0.0279,-0.199359 c -0.161687,-1.155554 -0.526352,-2.67882 -0.934534,-3.903734 -0.911122,-2.734192 -2.204109,-4.910829 -3.894002,-6.555235 -0.87454,-0.851001 -1.658459,-1.423393 -2.538748,-1.853714 -0.617474,-0.301846 -1.042362,-0.458567 -1.709712,-0.630634 -0.308812,-0.07962 -1.183517,-0.213195 -1.153046,-0.221608 0.03047,-0.0084 0.966117,0.108331 1.356582,0.165408 1.45087,0.212092 2.796223,0.633802 4.13463,1.296026 4.638788,2.295207 7.926734,7.010101 8.76792,12.573141 0.05329,0.352387 0.126389,0.710114 0.162453,0.794949 0.04975,0.117032 0.07169,0.357933 0.0909,0.998492 0.02266,0.755403 0.01777,0.860178 -0.04651,0.995643 -0.375636,0.791594 -3.416846,1.517365 -7.959901,1.899596 -2.938972,0.247271 -6.631407,0.338797 -9.841931,0.243955 z m 6.402152,-1.626749 c 3.297407,-0.140257 6.083726,-0.426351 8.129335,-0.8347 0.939192,-0.187485 1.945759,-0.461183 1.945759,-0.529078 0,-0.03909 -0.401983,-0.204309 -0.834504,-0.34298 -1.597261,-0.512102 -4.410509,-0.914196 -7.836183,-1.120014 -3.210037,-0.192862 -7.314851,-0.185114 -10.482167,0.01979 -3.8018667,0.245951 -6.7947847,0.735533 -8.1720204,1.336778 -0.2115256,0.09235 -0.2431329,0.148138 -0.1017685,0.179644 0.050375,0.01123 0.3297303,0.08713 0.6207886,0.168673 2.2660662,0.634866 6.3679883,1.066564 11.2149013,1.18029 0.954457,0.0224 4.498539,-0.01512 5.515859,-0.0584 z"
       id="path847"
       sodipodi:nodetypes="sssssssscssscsscscscsccscsssscccssssssssssccsccsssssssssssccscccssscsscsscssscsssssccsssscssssssssscsssss"
       inkscape:label="hat" />
    <path
       id="path841"
       style="fill:#f6f6f6;stroke-width:0.147636;fill-opacity:1"
       d="m 66.494141,41.751953 c -0.140047,0.0098 -0.248948,0.04472 -0.332032,0.105469 -0.21603,0.157965 -0.174198,0.226091 0.353516,0.591797 2.347044,1.626502 4.48989,5.369779 6.423828,11.216797 2.727022,8.244807 4.644645,19.253956 5.634766,32.365234 0.190694,2.525202 0.310786,3.450488 0.455078,3.505859 0.107795,0.04136 1.902363,0.17629 3.988281,0.300782 7.121013,0.424997 13.279405,1.006566 18.628902,1.757812 3.16229,0.444089 3.39649,0.452658 3.39649,0.117188 0,-0.448711 -0.73303,-4.403157 -1.19336,-6.439453 C 102.29171,78.382045 100.2164,72.468322 97.341797,66.730469 94.207152,60.473571 90.908384,55.91014 86.351562,51.525391 81.156641,46.526638 75.373918,43.374213 69.314453,42.236328 c -0.933795,-0.175354 -1.96986,-0.373973 -2.302734,-0.439453 -0.206025,-0.04053 -0.377532,-0.05472 -0.517578,-0.04492 z m -4.777344,0.01367 c -0.343714,-0.03249 -1.056418,0.07652 -2.78125,0.392578 -1.514927,0.277596 -3.502714,0.745463 -4.417969,1.039063 -12.020434,3.855969 -22.317373,16.282457 -28.013672,33.80664 -1.275382,3.923602 -3.019188,11.277387 -3.332031,14.050782 -0.0831,0.736737 -0.06492,0.922121 0.09766,0.919921 0.111987,-0.0015 1.201929,-0.134715 2.419922,-0.294921 7.570382,-0.995758 13.820469,-1.568123 20.785156,-1.902344 1.444545,-0.06932 2.657583,-0.15563 2.695313,-0.19336 0.03773,-0.03773 0.231959,-2.023871 0.433594,-4.412109 1.011898,-11.985279 2.485719,-20.951004 4.714843,-28.710937 2.114132,-7.359626 4.606921,-12.135997 7.316407,-14.013672 0.554562,-0.384311 0.577537,-0.427453 0.326172,-0.603516 -0.05657,-0.03962 -0.12957,-0.06729 -0.244141,-0.07813 z"
       transform="scale(0.26458333)" />
  </g>
</svg>
