<?xml version="1.0" encoding="UTF-8" standalone="no"?>
<svg
   xmlns:dc="http://purl.org/dc/elements/1.1/"
   xmlns:cc="http://creativecommons.org/ns#"
   xmlns:rdf="http://www.w3.org/1999/02/22-rdf-syntax-ns#"
   xmlns:svg="http://www.w3.org/2000/svg"
   xmlns="http://www.w3.org/2000/svg"
   xmlns:sodipodi="http://sodipodi.sourceforge.net/DTD/sodipodi-0.dtd"
   xmlns:inkscape="http://www.inkscape.org/namespaces/inkscape"
   viewBox="0 0 16 16"
   version="1.1"
   id="svg11"
   sodipodi:docname="cascadeView.svg"
   inkscape:export-filename="..\Image_cascadeView.png"
   inkscape:export-xdpi="96"
   inkscape:export-ydpi="96"
   inkscape:version="1.0.1 (3bc2e813f5, 2020-09-07)">
  <title
     id="title851">cascadeView</title>
  <metadata
     id="metadata17">
    <rdf:RDF>
      <cc:Work
         rdf:about="">
        <dc:format>image/svg+xml</dc:format>
        <dc:type
           rdf:resource="http://purl.org/dc/dcmitype/StillImage" />
        <dc:title>cascadeView</dc:title>
      </cc:Work>
    </rdf:RDF>
  </metadata>
  <defs
     id="defs15" />
  <sodipodi:namedview
     pagecolor="#ffffff"
     bordercolor="#666666"
     borderopacity="1"
     objecttolerance="10"
     gridtolerance="10"
     guidetolerance="10"
     inkscape:pageopacity="0"
     inkscape:pageshadow="2"
     inkscape:window-width="1810"
     inkscape:window-height="1057"
     id="namedview13"
     showgrid="false"
     inkscape:zoom="54.1875"
     inkscape:cx="8"
     inkscape:cy="8"
     inkscape:window-x="102"
     inkscape:window-y="-8"
     inkscape:window-maximized="1"
     inkscape:current-layer="svg11"
     inkscape:document-rotation="0" />
  <style
     id="style2">.st0{opacity:0}.st0,.st1{fill:#f6f6f6}.st2{fill:#424242}.st3{fill:#f0eff1}</style>
  <path
     class="st1"
     d="M 0,1 H 16 V 15 H 0 Z"
     id="path6"
     style="display:inline"
     inkscape:label="outline" />
  <path
     class="st2"
     d="m 1,2 v 8 H 11 V 2 Z m 9,7 H 2 V 3 h 8 z"
     id="icon_x5F_bg"
     style="display:inline"
     sodipodi:nodetypes="cccccccccc" />
  <path
     style="display:inline;fill:#f0eff1;fill-opacity:1"
     d="m 2,3 h 8 V 9 H 2 Z"
     id="path900-3"
     inkscape:label="icon_x5F_fg" />
  <path
     class="st2"
     d="m 3,4 v 8 H 13 V 4 Z m 9,7 H 4 V 5 h 8 z"
     id="icon_x5F_bg-67"
     style="display:inline;fill:#424242"
     sodipodi:nodetypes="cccccccccc"
     inkscape:label="icon_x5F_bg-3" />
  <path
     style="display:inline;fill:#f0eff1;fill-opacity:1"
     d="m 4,5 h 8 v 6 H 4 Z"
     id="path900"
     inkscape:label="icon_x5F_fg-3" />
  <path
     id="icon_x5F_fg"
     style="display:inline;fill:#f0eff1;fill-opacity:1"
     inkscape:label="icon_x5F_fg-6"
     d="m 6,8 v 5 h 8 V 8 Z m 1,1 h 2 v 1 H 7 Z m 4,0 h 2 v 1 h -2 z m -4,2 h 2 v 1 H 7 Z m 4,0 h 2 v 1 h -2 z" />
  <path
     id="icon_x5F_bg-6"
     style="display:inline;fill:#424242"
     d="m 5,6 v 8 H 15 V 6 Z m 1,2 h 8 v 5 H 6 Z m 1,1 v 1 H 9 V 9 Z m 4,0 v 1 h 2 V 9 Z m -4,2 v 1 h 2 v -1 z m 4,0 v 1 h 2 v -1 z" />
</svg>
