<?xml version="1.0" encoding="UTF-8" standalone="no"?>
<svg
   xmlns:dc="http://purl.org/dc/elements/1.1/"
   xmlns:cc="http://creativecommons.org/ns#"
   xmlns:rdf="http://www.w3.org/1999/02/22-rdf-syntax-ns#"
   xmlns:svg="http://www.w3.org/2000/svg"
   xmlns="http://www.w3.org/2000/svg"
   xmlns:sodipodi="http://sodipodi.sourceforge.net/DTD/sodipodi-0.dtd"
   xmlns:inkscape="http://www.inkscape.org/namespaces/inkscape"
   width="16"
   height="16"
   version="1.1"
   id="svg9"
   sodipodi:docname="checkCode.svg"
   inkscape:version="1.0.1 (3bc2e813f5, 2020-09-07)"
   inkscape:export-filename="..\Image_checkCode.png"
   inkscape:export-xdpi="96"
   inkscape:export-ydpi="96">
  <title
     id="title840">checkCode</title>
  <metadata
     id="metadata15">
    <rdf:RDF>
      <cc:Work
         rdf:about="">
        <dc:format>image/svg+xml</dc:format>
        <dc:type
           rdf:resource="http://purl.org/dc/dcmitype/StillImage" />
        <dc:title>checkCode</dc:title>
      </cc:Work>
    </rdf:RDF>
  </metadata>
  <defs
     id="defs13" />
  <sodipodi:namedview
     pagecolor="#ffffff"
     bordercolor="#666666"
     borderopacity="1"
     objecttolerance="10"
     gridtolerance="10"
     guidetolerance="10"
     inkscape:pageopacity="0"
     inkscape:pageshadow="2"
     inkscape:window-width="1810"
     inkscape:window-height="1057"
     id="namedview11"
     showgrid="false"
     inkscape:zoom="54.1875"
     inkscape:cx="8"
     inkscape:cy="8"
     inkscape:window-x="102"
     inkscape:window-y="-8"
     inkscape:window-maximized="1"
     inkscape:current-layer="svg9"
     inkscape:document-rotation="0" />
  <style
     type="text/css"
     id="style2">.icon-canvas-transparent{opacity:0;fill:#F6F6F6;} .icon-vs-out{fill:#F6F6F6;} .icon-vs-bg{fill:#424242;} .icon-vs-blue{fill:#1BA1E2;} .icon-white{fill:#FFFFFF;}</style>
  <path
     class="icon-canvas-transparent"
     d="M16 16h-16v-16h16v16z"
     id="canvas" />
  <path
     class="icon-vs-out"
     d="m 8,4 v 2 h 2 v 4 H 7 v 3 H 0 V 0 h 12 v 4 z"
     id="outline"
     sodipodi:nodetypes="ccccccccccc" />
  <path
     class="icon-vs-bg"
     d="m 1,10 h 5 v 2 H 1 Z M 1,6 H 7 V 4 H 1 Z M 3,9 H 9 V 7 H 3 Z M 1,1 V 3 H 11 V 1 Z"
     id="iconBg"
     sodipodi:nodetypes="cccccccccccccccccccc" />
  <circle
     style="fill:#efefef;stroke-width:1.00141;fill-opacity:1"
     id="path850"
     cx="11.5"
     cy="11.5"
     r="4.5"
     inkscape:label="outlineNotification" />
  <path
     class="icon-vs-green"
     d="M 11.5,8 C 9.57,8 8,9.57 8,11.5 8,13.43 9.57,15 11.5,15 13.43,15 15,13.43 15,11.5 15,9.57 13.43,8 11.5,8 Z m 0,6 H 10.375 L 9.25,12 h 1.125 L 10.938,12.75 12.625,9 h 1.125 z"
     id="notificationBg"
     style="fill:#339933" />
  <path
     class="icon-white"
     d="M 11.5,14 H 10.375 L 9.25,12 h 1.125 L 10.938,12.75 12.625,9 h 1.125 z"
     id="notificationFg"
     style="fill:#ffffff" />
</svg>
