<?xml version="1.0" encoding="UTF-8" standalone="no"?>
<svg
   xmlns:dc="http://purl.org/dc/elements/1.1/"
   xmlns:cc="http://creativecommons.org/ns#"
   xmlns:rdf="http://www.w3.org/1999/02/22-rdf-syntax-ns#"
   xmlns:svg="http://www.w3.org/2000/svg"
   xmlns="http://www.w3.org/2000/svg"
   xmlns:sodipodi="http://sodipodi.sourceforge.net/DTD/sodipodi-0.dtd"
   xmlns:inkscape="http://www.inkscape.org/namespaces/inkscape"
   viewBox="0 0 16 16"
   version="1.1"
   id="svg16"
   sodipodi:docname="closeAll.svg"
   inkscape:version="1.0.1 (3bc2e813f5, 2020-09-07)"
   inkscape:export-filename="..\Image_closeAll.png"
   inkscape:export-xdpi="96"
   inkscape:export-ydpi="96">
  <metadata
     id="metadata20">
    <rdf:RDF>
      <cc:Work
         rdf:about="">
        <dc:format>image/svg+xml</dc:format>
        <dc:type
           rdf:resource="http://purl.org/dc/dcmitype/StillImage" />
      </cc:Work>
    </rdf:RDF>
  </metadata>
  <sodipodi:namedview
     pagecolor="#ffffff"
     bordercolor="#666666"
     borderopacity="1"
     objecttolerance="10"
     gridtolerance="10"
     guidetolerance="10"
     inkscape:pageopacity="0"
     inkscape:pageshadow="2"
     inkscape:window-width="1810"
     inkscape:window-height="1057"
     id="namedview18"
     showgrid="false"
     inkscape:zoom="55.625"
     inkscape:cx="8"
     inkscape:cy="8"
     inkscape:window-x="102"
     inkscape:window-y="-8"
     inkscape:window-maximized="1"
     inkscape:current-layer="outline"
     inkscape:document-rotation="0" />
  <defs
     id="defs4">
    <style
       id="style2">.icon-canvas-transparent,.icon-vs-out{fill:#f6f6f6;}.icon-canvas-transparent{opacity:0;}.icon-vs-bg{fill:#424242;}</style>
  </defs>
  <title
     id="title6">CloseGroup_16x</title>
  <g
     id="canvas">
    <path
       id="_Compound_Path_"
       data-name="&lt;Compound Path&gt;"
       class="icon-canvas-transparent"
       d="M16,16H0V0H16Z" />
  </g>
  <g
     id="outline">
    <path
       class="icon-vs-out"
       d="m 16,12 h -2 v 2 h -2 v 2 H 0 V 5 H 2 V 3 H 4 V 1 h 12 z"
       id="path10"
       style="display:inline;fill:#f6f6f6;fill-opacity:1" />
  </g>
  <g
     id="iconBg">
    <path
       class="icon-vs-bg"
       d="m 15,2 v 9 H 14 V 3 H 5 V 2 Z M 3,5 h 9 v 8 h 1 V 4 H 3 Z M 1,6 h 10 v 9 H 1 Z M 5.116,10.5 3.058,12.558 3.942,13.442 6,11.384 8.058,13.442 8.942,12.558 6.884,10.5 8.942,8.442 8.058,7.558 6,9.616 3.942,7.558 3.058,8.442 Z"
       id="path13"
       style="display:inline;fill:#424242;fill-opacity:1"
       inkscape:export-xdpi="120"
       inkscape:export-ydpi="120" />
  </g>
  <path
     style="display:inline;fill:#ffffff;fill-opacity:1"
     d="M 3.942,7.558 6,9.616 8.058,7.558 8.942,8.442 6.884,10.5 8.942,12.558 8.058,13.442 6,11.384 3.942,13.442 3.058,12.558 5.116,10.5 3.058,8.442 Z"
     id="path837"
     inkscape:label="Accent" />
</svg>
