<?xml version="1.0" encoding="UTF-8" standalone="no"?>
<svg
   xmlns:dc="http://purl.org/dc/elements/1.1/"
   xmlns:cc="http://creativecommons.org/ns#"
   xmlns:rdf="http://www.w3.org/1999/02/22-rdf-syntax-ns#"
   xmlns:svg="http://www.w3.org/2000/svg"
   xmlns="http://www.w3.org/2000/svg"
   xmlns:sodipodi="http://sodipodi.sourceforge.net/DTD/sodipodi-0.dtd"
   xmlns:inkscape="http://www.inkscape.org/namespaces/inkscape"
   viewBox="0 0 16 16"
   enable-background="new 0 0 16 16"
   version="1.1"
   id="svg8"
   sodipodi:docname="closePlugin.svg"
   inkscape:version="1.0.1 (3bc2e813f5, 2020-09-07)"
   inkscape:export-filename="..\Image_closePlugin.png"
   inkscape:export-xdpi="96"
   inkscape:export-ydpi="96">
  <title
     id="title11"> closePlugin</title>
  <metadata
     id="metadata14">
    <rdf:RDF>
      <cc:Work
         rdf:about="">
        <dc:format>image/svg+xml</dc:format>
        <dc:type
           rdf:resource="http://purl.org/dc/dcmitype/StillImage" />
        <dc:title> closePlugin</dc:title>
      </cc:Work>
    </rdf:RDF>
  </metadata>
  <defs
     id="defs12" />
  <sodipodi:namedview
     pagecolor="#ffffff"
     bordercolor="#666666"
     borderopacity="1"
     objecttolerance="10"
     gridtolerance="10"
     guidetolerance="10"
     inkscape:pageopacity="0"
     inkscape:pageshadow="2"
     inkscape:window-width="1810"
     inkscape:window-height="1057"
     id="namedview10"
     showgrid="false"
     inkscape:zoom="52.817926"
     inkscape:cx="8"
     inkscape:cy="8"
     inkscape:window-x="102"
     inkscape:window-y="-8"
     inkscape:window-maximized="1"
     inkscape:current-layer="svg8"
     inkscape:document-rotation="0" />
  <style
     type="text/css"
     id="style2">.icon-canvas-transparent{opacity:0;fill:#F6F6F6;} .icon-vs-out{fill:#F6F6F6;} .icon-vs-bg{fill:#424242;} .icon-vs-fg{fill:#F0EFF1;}</style>
  <path
     class="icon-canvas-transparent"
     d="M 16,16 H 0 V 0 h 16 z"
     id="canvas"
     style="display:inline" />
  <path
     class="icon-vs-out"
     d="M 14.000005,5 V 3 H 8.0000052 v 2 h -1 v 4 c -0.00262,1.629044 0.9877731,3.095226 2.4999998,3.701 V 15 h 3 v -2.299 c 1.512227,-0.605774 2.502623,-2.071956 2.5,-3.701 V 5 Z"
     id="outline"
     style="fill:#f6f6f6"
     sodipodi:nodetypes="ccccccccccccc"
     inkscape:label="iconOutline" />
  <path
     class="icon-vs-fg"
     d="m 9.0000052,7 v 2 c 0,1.103 0.8969998,2 1.9999998,2 1.103,0 2,-0.897 2,-2 V 7 Z"
     id="iconFg"
     style="fill:#f0eff1" />
  <path
     class="icon-vs-bg"
     d="M 13.000005,6 V 4 h -1 v 2 h -2 V 4 H 9.0000052 v 2 h -1 v 3 a 2.999,2.999 0 0 0 2.4999998,2.95 V 14 h 1 v -2.05 a 2.999,2.999 0 0 0 2.5,-2.95 V 6 Z m -2,5 C 9.897005,11 9.0000052,10.103 9.0000052,9 V 7 h 3.9999998 v 2 c 0,1.103 -0.897,2 -2,2 z"
     id="iconBg"
     style="fill:#424242" />
  <rect
     style="fill:#efefef;stroke-width:3.2554;fill-opacity:1"
     id="rect856"
     width="8"
     height="8"
     x="0"
     y="0"
     inkscape:label="outlineAction" />
  <g
     id="colorAction"
     transform="matrix(0.85714286,0,0,0.85714286,0.14285714,0.14285714)">
    <path
       class="icon-vs-bg"
       d="M 1,1 V 8 H 8 V 1 Z M 7.229,6.521 6.521,7.229 4.5,5.207 2.479,7.229 1.771,6.521 3.793,4.5 1.771,2.479 2.478,1.772 4.5,3.793 6.521,1.772 7.228,2.479 5.207,4.5 Z"
       id="path8"
       style="fill:#e50000;fill-opacity:1" />
    <path
       class="icon-vs-fg"
       d="M 5.207,4.5 7.228,6.521 6.521,7.229 4.5,5.207 2.479,7.229 1.771,6.521 3.793,4.5 1.771,2.479 2.478,1.772 4.5,3.793 6.521,1.772 7.228,2.479 Z"
       id="path10" />
  </g>
</svg>
