<?xml version="1.0" encoding="UTF-8" standalone="no"?>
<svg
   xmlns:dc="http://purl.org/dc/elements/1.1/"
   xmlns:cc="http://creativecommons.org/ns#"
   xmlns:rdf="http://www.w3.org/1999/02/22-rdf-syntax-ns#"
   xmlns:svg="http://www.w3.org/2000/svg"
   xmlns="http://www.w3.org/2000/svg"
   xmlns:sodipodi="http://sodipodi.sourceforge.net/DTD/sodipodi-0.dtd"
   xmlns:inkscape="http://www.inkscape.org/namespaces/inkscape"
   viewBox="0 0 16 16"
   version="1.1"
   id="svg7"
   sodipodi:docname="exit.svg"
   inkscape:version="1.0.1 (3bc2e813f5, 2020-09-07)"
   inkscape:export-filename="..\Image_exit.png"
   inkscape:export-xdpi="96"
   inkscape:export-ydpi="96">
  <metadata
     id="metadata13">
    <rdf:RDF>
      <cc:Work
         rdf:about="">
        <dc:format>image/svg+xml</dc:format>
        <dc:type
           rdf:resource="http://purl.org/dc/dcmitype/StillImage" />
        <dc:title />
      </cc:Work>
    </rdf:RDF>
  </metadata>
  <defs
     id="defs11">
    <inkscape:path-effect
       effect="offset"
       id="path-effect890"
       is_visible="true"
       lpeversion="1"
       linejoin_type="miter"
       unit="mm"
       offset="3"
       miter_limit="4"
       attempt_force_join="true"
       update_on_knot_move="true" />
  </defs>
  <sodipodi:namedview
     pagecolor="#ffffff"
     bordercolor="#666666"
     borderopacity="1"
     objecttolerance="10"
     gridtolerance="10"
     guidetolerance="10"
     inkscape:pageopacity="0"
     inkscape:pageshadow="2"
     inkscape:window-width="1810"
     inkscape:window-height="1057"
     id="namedview9"
     showgrid="false"
     inkscape:zoom="51.625"
     inkscape:cx="5.7433414"
     inkscape:cy="8"
     inkscape:window-x="102"
     inkscape:window-y="-8"
     inkscape:window-maximized="1"
     inkscape:current-layer="g853"
     inkscape:document-rotation="0" />
  <style
     id="style2">.icon-canvas-transparent{opacity:0;fill:#f6f6f6}.icon-vs-out{fill:#f6f6f6}.icon-vs-bg{fill:#424242}</style>
  <path
     class="icon-canvas-transparent"
     d="M 16,16 H 0 V 0 h 16 z"
     id="canvas"
     style="display:inline;fill:#ffeeaa" />
  <g
     id="g853"
     transform="matrix(1.1492705,0,0,1.1492705,0.07519629,-1.2233446)">
    <path
       style="display:inline;fill:#f6f6f6;fill-opacity:1"
       d="m 7.0019531,1.0644531 c -3.832753,0 -6.96093748,3.1281869 -6.96093748,6.9609375 0,3.8327504 3.12818438,6.9609374 6.96093748,6.9609374 h 0.00195 c 1.8527762,-0.0021 3.6263419,-0.749223 4.9238279,-2.070312 L 12.604,12.238042 11.921831,11.5625 11.20894,10.849609 10.526071,10.239 9.845659,10.855509 c -0.7381793,0.747989 -1.7230433,1.208984 -2.8417969,1.208984 -2.2423809,0 -4.0390624,-1.796681 -4.0390624,-4.0390624 0,-2.242381 1.7966816,-4.0390625 4.0390624,-4.0390625 1.1062373,0 2.0802049,0.4560241 2.8183594,1.1933594 L 10.502314,5.82 11.181597,5.1777775 11.900347,4.4570743 12.604,3.749 11.900347,3.1016056 C 10.60316,1.7983826 8.8400431,1.0657728 7.0019531,1.0644531 Z"
       id="path16"
       sodipodi:nodetypes="csscccccccsssccccccc"
       inkscape:label="outline" />
    <path
       style="display:inline;fill:#efefef;fill-opacity:1"
       d="M 9.0839844,3.4 8.4375,4.0664062 7.7304688,4.7734375 7.08,5.4296875 l 0.6504688,0.65625 0.5,0.5 L 6.4257812,6.586 H 5.498 V 7.5136719 8.4882812 9.416 h 0.9277812 l 1.8046876,1.56e-5 -0.5,0.5 L 7.08,10.572266 7.7304688,11.228516 8.4375,11.935547 9.088,12.567 9.7421875,11.943347 13.09375,8.6660156 13.75,8.0019531 13.09375,7.3378906 9.7421875,4.0585938 Z"
       id="path888"
       sodipodi:nodetypes="cccccccccccccccccccccccc"
       inkscape:label="outlineAction" />
    <path
       class="icon-vs-bg"
       d="m 10.53,11.53 c -0.903,0.915 -2.14,1.495 -3.527,1.495 -2.7614237,0 -5,-2.238576 -5,-5 0,-2.7614237 2.2385763,-5 5,-5 1.374,0 2.597,0.575 3.498,1.475 l 0.72,-0.72 C 10.103743,2.6576194 8.5856665,2.026137 7.002,2.025 c -3.3137107,0 -5.9999974,2.6862916 -5.9999974,6 0,3.313708 2.6862867,6 5.9999974,6 1.5953132,-0.0018 3.123156,-0.643821 4.241,-1.782 z"
       id="iconBg"
       style="display:inline"
       sodipodi:nodetypes="cssscccsccc" />
    <path
       class="icon-vs-bg"
       d="M 12.445,8.001 9.0930001,11.28 8.3860001,10.573 10.47,8.489 H 6.4260001 V 7.513 H 10.47 l -2.0839999,-2.084 0.707,-0.707 z"
       id="iconBg-6-9"
       style="display:inline;fill:#00539c;fill-opacity:1"
       sodipodi:nodetypes="cccccccccc"
       inkscape:label="colorAction"
       sodipodi:insensitive="true" />
  </g>
</svg>
