<?xml version="1.0" encoding="UTF-8" standalone="no"?>
<svg
   xmlns:dc="http://purl.org/dc/elements/1.1/"
   xmlns:cc="http://creativecommons.org/ns#"
   xmlns:rdf="http://www.w3.org/1999/02/22-rdf-syntax-ns#"
   xmlns:svg="http://www.w3.org/2000/svg"
   xmlns="http://www.w3.org/2000/svg"
   xmlns:sodipodi="http://sodipodi.sourceforge.net/DTD/sodipodi-0.dtd"
   xmlns:inkscape="http://www.inkscape.org/namespaces/inkscape"
   viewBox="0 0 16 16"
   enable-background="new 0 0 16 16"
   version="1.1"
   id="svg8"
   sodipodi:docname="newPlugin.svg"
   inkscape:version="1.0.1 (3bc2e813f5, 2020-09-07)"
   inkscape:export-filename="..\Image_newPlugin.png"
   inkscape:export-xdpi="96"
   inkscape:export-ydpi="96">
  <title
     id="title11">newPlugin</title>
  <metadata
     id="metadata14">
    <rdf:RDF>
      <cc:Work
         rdf:about="">
        <dc:format>image/svg+xml</dc:format>
        <dc:type
           rdf:resource="http://purl.org/dc/dcmitype/StillImage" />
        <dc:title>newPlugin</dc:title>
      </cc:Work>
    </rdf:RDF>
  </metadata>
  <defs
     id="defs12" />
  <sodipodi:namedview
     pagecolor="#ffffff"
     bordercolor="#666666"
     borderopacity="1"
     objecttolerance="10"
     gridtolerance="10"
     guidetolerance="10"
     inkscape:pageopacity="0"
     inkscape:pageshadow="2"
     inkscape:window-width="1810"
     inkscape:window-height="1057"
     id="namedview10"
     showgrid="false"
     inkscape:zoom="51.625"
     inkscape:cx="8"
     inkscape:cy="8"
     inkscape:window-x="102"
     inkscape:window-y="-8"
     inkscape:window-maximized="1"
     inkscape:current-layer="svg8"
     inkscape:document-rotation="0" />
  <style
     type="text/css"
     id="style2">.icon-canvas-transparent{opacity:0;fill:#F6F6F6;} .icon-vs-out{fill:#F6F6F6;} .icon-vs-bg{fill:#424242;} .icon-vs-fg{fill:#F0EFF1;}</style>
  <path
     class="icon-canvas-transparent"
     d="M 16,16 H 0 V 0 h 16 z"
     id="canvas"
     style="display:inline" />
  <path
     class="icon-vs-out"
     d="M 14.000005,5 V 3 H 8.0000052 v 2 h -1 v 4 c -0.00262,1.629044 0.9877731,3.095226 2.4999998,3.701 V 15 h 3 v -2.299 c 1.512227,-0.605774 2.502623,-2.071956 2.5,-3.701 V 5 Z"
     id="outline"
     style="fill:#f6f6f6"
     sodipodi:nodetypes="ccccccccccccc"
     inkscape:label="iconOutline" />
  <path
     class="icon-vs-fg"
     d="m 9.0000052,7 v 2 c 0,1.103 0.8969998,2 1.9999998,2 1.103,0 2,-0.897 2,-2 V 7 Z"
     id="iconFg"
     style="fill:#f0eff1" />
  <path
     class="icon-vs-out"
     d="M 9,5.9999996 H 8.121 l 0.621,0.621 -2.144,2.122 -0.598,-0.622 v 0.879 H 3 v -0.879 l -0.621,0.621 -2.122,-2.121 0.621,-0.621 H 0 V 3 H 0.878 L 0.257,2.379 2.379,0.257 3,0.878 V 0 H 6 V 0.878 L 6.621,0.256 8.742,2.379 8.121,3 H 9 Z"
     id="outline-9"
     sodipodi:nodetypes="ccccccccccccccccccccccccc"
     style="display:inline;fill:#efefef;fill-opacity:1"
     inkscape:label="outlineAction" />
  <path
     class="icon-vs-bg"
     d="M 13.000005,6 V 4 h -1 v 2 h -2 V 4 H 9.0000052 v 2 h -1 v 3 a 2.999,2.999 0 0 0 2.4999998,2.95 V 14 h 1 v -2.05 a 2.999,2.999 0 0 0 2.5,-2.95 V 6 Z m -2,5 C 9.897005,11 9.0000052,10.103 9.0000052,9 V 7 h 3.9999998 v 2 c 0,1.103 -0.897,2 -2,2 z"
     id="iconBg"
     style="fill:#424242" />
  <path
     class="icon-vs-action-orange"
     d="M 8,4 H 5.707 L 7.328,2.379 6.621,1.671 5,3.292 V 1 H 4 V 3.292 L 2.379,1.671 1.671,2.379 3.292,4 H 1 v 1 h 2.292 l -1.621,1.6209996 0.708,0.707 L 4,5.707 V 7.9999996 H 5 V 5.707 l 1.621,1.6209996 0.707,-0.707 L 5.707,5 H 8 Z M 5,5 H 4 V 4 h 1 z"
     id="colorAction"
     style="fill:#c27d1a" />
  <path
     style="fill:#ffffff;stroke:none;stroke-width:1px;stroke-linecap:butt;stroke-linejoin:miter;stroke-opacity:1"
     d="M 4,4 H 5 V 5 H 4 Z"
     id="path837"
     inkscape:label="colorAccent" />
</svg>
