<?xml version="1.0" encoding="UTF-8" standalone="no"?>
<svg
   xmlns:dc="http://purl.org/dc/elements/1.1/"
   xmlns:cc="http://creativecommons.org/ns#"
   xmlns:rdf="http://www.w3.org/1999/02/22-rdf-syntax-ns#"
   xmlns:svg="http://www.w3.org/2000/svg"
   xmlns="http://www.w3.org/2000/svg"
   xmlns:sodipodi="http://sodipodi.sourceforge.net/DTD/sodipodi-0.dtd"
   xmlns:inkscape="http://www.inkscape.org/namespaces/inkscape"
   viewBox="0 0 16 16"
   version="1.1"
   id="svg20"
   sodipodi:docname="openBinary.svg"
   inkscape:version="1.0.1 (3bc2e813f5, 2020-09-07)"
   inkscape:export-filename="..\Image_openBinary.png"
   inkscape:export-xdpi="96"
   inkscape:export-ydpi="96">
  <metadata
     id="metadata24">
    <rdf:RDF>
      <cc:Work
         rdf:about="">
        <dc:format>image/svg+xml</dc:format>
        <dc:type
           rdf:resource="http://purl.org/dc/dcmitype/StillImage" />
        <dc:title>openBinary</dc:title>
      </cc:Work>
    </rdf:RDF>
  </metadata>
  <sodipodi:namedview
     pagecolor="#ffffff"
     bordercolor="#666666"
     borderopacity="1"
     objecttolerance="10"
     gridtolerance="10"
     guidetolerance="10"
     inkscape:pageopacity="0"
     inkscape:pageshadow="2"
     inkscape:window-width="1810"
     inkscape:window-height="1057"
     id="namedview22"
     showgrid="false"
     inkscape:zoom="54.1875"
     inkscape:cx="7.5940023"
     inkscape:cy="8"
     inkscape:window-x="102"
     inkscape:window-y="-8"
     inkscape:window-maximized="1"
     inkscape:current-layer="svg20"
     inkscape:document-rotation="0" />
  <defs
     id="defs4">
    <style
       id="style2">.icon-canvas-transparent,.icon-vs-out{fill:#f6f6f6;}.icon-canvas-transparent{opacity:0;}.icon-vs-bg{fill:#424242;}.icon-vs-action-blue{fill:#00539c;}</style>
  </defs>
  <title
     id="title6">openBinary</title>
  <g
     id="canvas"
     style="display:inline">
    <path
       class="icon-canvas-transparent"
       d="M 16,16.018 H 0 v -16 h 16 z"
       id="path8" />
  </g>
  <g
     id="outline"
     style="display:inline">
    <path
       class="icon-vs-out"
       d="M 16,4.4 V 16.018 H 3 v -16 H 5.711 L 5.729,0 5.746,0.018 h 5.875 z"
       id="path11"
       style="display:inline"
       sodipodi:nodetypes="ccccccccc" />
  </g>
  <g
     id="iconBg"
     style="display:inline">
    <path
       class="icon-vs-bg"
       d="M 11.207,1.018 H 6 l 0,1 h 4 v 4 h 4 v 8 H 5 V 9.721 H 4 v 5.297 H 15 V 4.811 Z M 11,5.018 V 2.225 l 2.793,2.793 z"
       id="path14"
       style="display:inline"
       sodipodi:nodetypes="cccccccccccccccccc" />
  </g>
  <path
     class="icon-vs-bg"
     d="m 8.134,12.3 c -1,0 -1.5,-0.702 -1.5,-2.106 0,-0.729 0.135,-1.283 0.406,-1.666 0.27,-0.381 0.662,-0.573 1.176,-0.573 0.977,0 1.465,0.714 1.465,2.142 0,0.711 -0.133,1.256 -0.4,1.635 C 9.014,12.111 8.632,12.3 8.134,12.3 Z M 8.175,8.661 c -0.4,0 -0.601,0.503 -0.601,1.509 0,0.947 0.196,1.421 0.589,1.421 0.383,0 0.574,-0.488 0.574,-1.465 C 8.737,9.149 8.55,8.661 8.175,8.661 Z M 12.2,7.932 v 4.295 H 11.277 V 8.975 c -0.05543,0.04847 -0.115752,0.091033 -0.18,0.127 -0.219437,0.1262257 -0.46182,0.2074734 -0.713,0.239 V 8.562 c 0.453658,-0.1322368 0.879557,-0.3456944 1.257,-0.63 z"
     id="iconBg-3"
     style="display:inline;fill:#424242"
     sodipodi:nodetypes="sscsssssssssccccccccc" />
  <path
     class="icon-vs-out"
     d="m 3.8915481,6.621 0.84,-0.9 h -1.24 c -0.7214321,0 -0.7587117,1 0,1 h 1 l 3e-7,3 h -1 c -4.5873544,-0.013061 -4.7229477,-6.948194 0,-7 h 1.282082 L 3.8955481,1.821 5.7175481,0 9.937548,4.228 5.7235481,8.442 Z"
     id="path11-4"
     style="display:inline;fill:#efefef;fill-opacity:1"
     sodipodi:nodetypes="ccsscccccccccc"
     inkscape:label="outline-3" />
  <path
     class="icon-vs-action-blue"
     d="m 8.832,4.228 -3.1,3.1 -0.708,-0.707 1.9,-1.9 H 3.5 a 1.5,1.5 0 0 0 0,3 v 1 a 2.5,2.5 0 0 1 0,-5 h 3.418 l -1.9,-1.9 0.708,-0.707 z"
     id="path17"
     style="display:inline;fill:#00539c;fill-opacity:1"
     inkscape:label="colorAction" />
</svg>
