<?xml version="1.0" encoding="UTF-8" standalone="no"?>
<svg
   xmlns:dc="http://purl.org/dc/elements/1.1/"
   xmlns:cc="http://creativecommons.org/ns#"
   xmlns:rdf="http://www.w3.org/1999/02/22-rdf-syntax-ns#"
   xmlns:svg="http://www.w3.org/2000/svg"
   xmlns="http://www.w3.org/2000/svg"
   xmlns:sodipodi="http://sodipodi.sourceforge.net/DTD/sodipodi-0.dtd"
   xmlns:inkscape="http://www.inkscape.org/namespaces/inkscape"
   viewBox="0 0 16 16"
   enable-background="new 0 0 16 16"
   version="1.1"
   id="svg8"
   sodipodi:docname="openPlugin.svg"
   inkscape:version="1.0.1 (3bc2e813f5, 2020-09-07)"
   inkscape:export-filename="..\Image_openPlugin.png"
   inkscape:export-xdpi="96"
   inkscape:export-ydpi="96">
  <title
     id="title11">openPlugin</title>
  <metadata
     id="metadata14">
    <rdf:RDF>
      <cc:Work
         rdf:about="">
        <dc:format>image/svg+xml</dc:format>
        <dc:type
           rdf:resource="http://purl.org/dc/dcmitype/StillImage" />
        <dc:title>openPlugin</dc:title>
      </cc:Work>
    </rdf:RDF>
  </metadata>
  <defs
     id="defs12" />
  <sodipodi:namedview
     pagecolor="#ffffff"
     bordercolor="#666666"
     borderopacity="1"
     objecttolerance="10"
     gridtolerance="10"
     guidetolerance="10"
     inkscape:pageopacity="0"
     inkscape:pageshadow="2"
     inkscape:window-width="1810"
     inkscape:window-height="1057"
     id="namedview10"
     showgrid="false"
     inkscape:zoom="51.625"
     inkscape:cx="8"
     inkscape:cy="8"
     inkscape:window-x="102"
     inkscape:window-y="-8"
     inkscape:window-maximized="1"
     inkscape:current-layer="svg8"
     inkscape:document-rotation="0"
     inkscape:snap-bbox="true" />
  <style
     type="text/css"
     id="style2">.icon-canvas-transparent{opacity:0;fill:#F6F6F6;} .icon-vs-out{fill:#F6F6F6;} .icon-vs-bg{fill:#424242;} .icon-vs-fg{fill:#F0EFF1;}</style>
  <path
     class="icon-canvas-transparent"
     d="M 16,16 H 0 V 0 h 16 z"
     id="canvas"
     style="display:inline" />
  <path
     class="icon-vs-out"
     d="M 14.000005,5 V 3 H 8.0000052 v 2 h -1 v 4 c -0.00262,1.629044 0.9877731,3.095226 2.4999998,3.701 V 15 h 3 v -2.299 c 1.512227,-0.605774 2.502623,-2.071956 2.5,-3.701 V 5 Z"
     id="outline"
     style="fill:#f6f6f6"
     sodipodi:nodetypes="ccccccccccccc"
     inkscape:label="iconOutline" />
  <path
     class="icon-vs-fg"
     d="m 9.0000052,7 v 2 c 0,1.103 0.8969998,2 1.9999998,2 1.103,0 2,-0.897 2,-2 V 7 Z"
     id="iconFg"
     style="fill:#f0eff1" />
  <path
     class="icon-vs-bg"
     d="M 13.000005,6 V 4 h -1 v 2 h -2 V 4 H 9.0000052 v 2 h -1 v 3 a 2.999,2.999 0 0 0 2.4999998,2.95 V 14 h 1 v -2.05 a 2.999,2.999 0 0 0 2.5,-2.95 V 6 Z m -2,5 C 9.897005,11 9.0000052,10.103 9.0000052,9 V 7 h 3.9999998 v 2 c 0,1.103 -0.897,2 -2,2 z"
     id="iconBg"
     style="fill:#424242" />
  <path
     class="icon-vs-out"
     d="m 3.8915481,5.921 0.84,-0.9 h -1.24 c -0.7214321,0 -0.7587117,1 0,1 h 1 l 3e-7,3 h -1 c -4.5873545,-0.013061 -4.7229477,-6.948194 0,-7 h 1.282082 l -0.8780823,-0.9 1.822,-1.821 4.22,4.228 -4.214,4.214 z"
     id="path11"
     style="display:inline;fill:#efefef;fill-opacity:1"
     sodipodi:nodetypes="ccsscccccccccc"
     inkscape:label="outlineAction" />
  <path
     class="icon-vs-action-blue"
     d="m 8.824,3.528 -3.1,3.1 -0.708,-0.707 1.9,-1.9 H 3.492 a 1.5,1.5 0 0 0 0,3 v 1 a 2.5,2.5 0 0 1 0,-5 H 6.91 l -1.9,-1.9 0.708,-0.707 z"
     id="path17"
     style="display:inline;fill:#00539c;fill-opacity:1"
     inkscape:label="colorAction" />
</svg>
