<?xml version="1.0" encoding="UTF-8" standalone="no"?>
<svg
   xmlns:dc="http://purl.org/dc/elements/1.1/"
   xmlns:cc="http://creativecommons.org/ns#"
   xmlns:rdf="http://www.w3.org/1999/02/22-rdf-syntax-ns#"
   xmlns:svg="http://www.w3.org/2000/svg"
   xmlns="http://www.w3.org/2000/svg"
   xmlns:sodipodi="http://sodipodi.sourceforge.net/DTD/sodipodi-0.dtd"
   xmlns:inkscape="http://www.inkscape.org/namespaces/inkscape"
   viewBox="0 0 16 16"
   version="1.1"
   id="svg20"
   sodipodi:docname="reloadBinary.svg"
   inkscape:version="1.0.1 (3bc2e813f5, 2020-09-07)"
   inkscape:export-filename="..\Image_reloadBinary.png"
   inkscape:export-xdpi="96"
   inkscape:export-ydpi="96">
  <metadata
     id="metadata24">
    <rdf:RDF>
      <cc:Work
         rdf:about="">
        <dc:format>image/svg+xml</dc:format>
        <dc:type
           rdf:resource="http://purl.org/dc/dcmitype/StillImage" />
        <dc:title>reloadBinary</dc:title>
      </cc:Work>
    </rdf:RDF>
  </metadata>
  <sodipodi:namedview
     pagecolor="#ffffff"
     bordercolor="#666666"
     borderopacity="1"
     objecttolerance="10"
     gridtolerance="10"
     guidetolerance="10"
     inkscape:pageopacity="0"
     inkscape:pageshadow="2"
     inkscape:window-width="1810"
     inkscape:window-height="1057"
     id="namedview22"
     showgrid="false"
     inkscape:zoom="51.625"
     inkscape:cx="8"
     inkscape:cy="8"
     inkscape:window-x="102"
     inkscape:window-y="-8"
     inkscape:window-maximized="1"
     inkscape:current-layer="g874"
     inkscape:document-rotation="0" />
  <defs
     id="defs4">
    <style
       id="style2">.icon-canvas-transparent,.icon-vs-out{fill:#f6f6f6;}.icon-canvas-transparent{opacity:0;}.icon-vs-bg{fill:#424242;}.icon-vs-action-blue{fill:#00539c;}</style>
  </defs>
  <title
     id="title6">reloadBinary</title>
  <g
     id="canvas"
     style="display:inline">
    <path
       class="icon-canvas-transparent"
       d="M 16,16.018 H 0 v -16 h 16 z"
       id="path8" />
  </g>
  <g
     id="outline">
    <path
       class="icon-vs-out"
       d="M 16,4.4 V 16.018 H 3 v -16 H 5.711 L 5.729,0 5.746,0.018 h 5.875 z"
       id="path11"
       style="display:inline"
       sodipodi:nodetypes="ccccccccc" />
  </g>
  <g
     id="iconBg">
    <path
       class="icon-vs-bg"
       d="M 11.207,1.018 H 4 v 1 h 6 v 4 h 4 v 8 H 5 V 2 H 4 V 15.018 H 15 V 4.811 Z M 11,5.018 V 2.225 l 2.793,2.793 z"
       id="path14"
       style="display:inline"
       sodipodi:nodetypes="cccccccccccccccccc" />
  </g>
  <g
     id="g874"
     inkscape:label="outline-3">
    <circle
       style="fill:#efefef;stroke-width:0.562499;fill-opacity:1"
       id="path852"
       cx="4.5"
       cy="4.5"
       r="4.5" />
    <rect
       style="fill:#efefef;stroke-width:0.601941;fill-opacity:1"
       id="rect854"
       width="5"
       height="2.875"
       x="0.5"
       y="0" />
    <rect
       style="fill:#efefef;stroke-width:0.601941;fill-opacity:1"
       id="rect854-3"
       width="5"
       height="2.875"
       x="3.5"
       y="6" />
  </g>
  <path
     class="icon-vs-bg"
     d="m 8.134,12.3 c -1,0 -1.5,-0.702 -1.5,-2.106 0,-0.729 0.135,-1.283 0.406,-1.666 0.27,-0.381 0.662,-0.573 1.176,-0.573 0.977,0 1.465,0.714 1.465,2.142 0,0.711 -0.133,1.256 -0.4,1.635 C 9.014,12.111 8.632,12.3 8.134,12.3 Z M 8.175,8.661 c -0.4,0 -0.601,0.503 -0.601,1.509 0,0.947 0.196,1.421 0.589,1.421 0.383,0 0.574,-0.488 0.574,-1.465 C 8.737,9.149 8.55,8.661 8.175,8.661 Z M 12.2,7.932 v 4.295 H 11.277 V 8.975 c -0.05543,0.04847 -0.115752,0.091033 -0.18,0.127 -0.219437,0.1262257 -0.46182,0.2074734 -0.713,0.239 V 8.562 c 0.453658,-0.1322368 0.879557,-0.3456944 1.257,-0.63 z"
     id="iconBg-3"
     style="display:inline;fill:#424242"
     sodipodi:nodetypes="sscsssssssssccccccccc"
     inkscape:export-filename="..\Image_reloadBinary.png"
     inkscape:export-xdpi="144"
     inkscape:export-ydpi="144" />
  <path
     class="icon-vs-action-blue"
     d="M 3.6679618,6.56325 3.3358822,7.3875 A 3.4878359,3.051125 0 0 1 2.7247357,1.875 H 1.4984418 V 1 H 4.4991609 V 3.625 H 3.4989213 V 2.498 A 2.5005993,2.1875 0 0 0 3.6679618,6.564125 Z M 8,4.5 A 3.5068404,3.06775 0 0 0 5.6624397,1.6125 L 5.3303601,2.437625 A 2.5005993,2.1875 0 0 1 5.4994007,6.502 V 5.375 H 4.4991609 V 8 H 7.4998801 V 7.125 H 6.2735863 A 3.4898364,3.052875 0 0 0 8,4.5 Z"
     id="path14-3"
     style="display:inline;fill:#00539c;stroke-width:0.935527"
     inkscape:label="reload" />
</svg>
