<?xml version="1.0" encoding="UTF-8" standalone="no"?>
<svg
   xmlns:dc="http://purl.org/dc/elements/1.1/"
   xmlns:cc="http://creativecommons.org/ns#"
   xmlns:rdf="http://www.w3.org/1999/02/22-rdf-syntax-ns#"
   xmlns:svg="http://www.w3.org/2000/svg"
   xmlns="http://www.w3.org/2000/svg"
   xmlns:sodipodi="http://sodipodi.sourceforge.net/DTD/sodipodi-0.dtd"
   xmlns:inkscape="http://www.inkscape.org/namespaces/inkscape"
   viewBox="0 0 16 16"
   version="1.1"
   id="svg17"
   sodipodi:docname="restart.svg"
   inkscape:version="1.0.1 (3bc2e813f5, 2020-09-07)"
   inkscape:export-filename="..\Image_restart.png"
   inkscape:export-xdpi="96"
   inkscape:export-ydpi="96">
  <metadata
     id="metadata21">
    <rdf:RDF>
      <cc:Work
         rdf:about="">
        <dc:format>image/svg+xml</dc:format>
        <dc:type
           rdf:resource="http://purl.org/dc/dcmitype/StillImage" />
        <dc:title>Restart_16x</dc:title>
      </cc:Work>
    </rdf:RDF>
  </metadata>
  <sodipodi:namedview
     pagecolor="#ffffff"
     bordercolor="#666666"
     borderopacity="1"
     objecttolerance="10"
     gridtolerance="10"
     guidetolerance="10"
     inkscape:pageopacity="0"
     inkscape:pageshadow="2"
     inkscape:window-width="1810"
     inkscape:window-height="1057"
     id="namedview19"
     showgrid="false"
     inkscape:zoom="54.1875"
     inkscape:cx="8"
     inkscape:cy="8"
     inkscape:window-x="102"
     inkscape:window-y="-8"
     inkscape:window-maximized="1"
     inkscape:current-layer="svg17"
     inkscape:document-rotation="0" />
  <defs
     id="defs4">
    <style
       id="style2">.icon-canvas-transparent,.icon-vs-out{fill:#f6f6f6;}.icon-canvas-transparent{opacity:0;}.icon-vs-action-green{fill:#388a34;}</style>
  </defs>
  <title
     id="title6">Restart_16x</title>
  <g
     id="canvas">
    <path
       class="icon-canvas-transparent"
       d="M 16,0 V 16 H 0 V 0 Z"
       id="path8"
       inkscape:label="path8" />
  </g>
  <g
     id="outline"
     transform="scale(1.0000832,1)">
    <path
       class="icon-vs-out"
       d="M 8,0 A 7.989,7.989 0 0 0 4,1.088 V 0 H 0 V 8.673 L 0.11,9.33 A 8,8 0 1 0 8,0 Z M 8,12 A 3.982,3.982 0 0 1 4.056,8.669 L 3.943,8 H 8 V 4 a 4,4 0 0 1 0,8 z"
       id="path11" />
  </g>
  <g
     id="iconBg"
     transform="matrix(1,0,0,1.000994,0,-9.9397411e-4)">
    <path
       class="icon-vs-action-green"
       d="M 15,8 A 7,7 0 0 1 1.1,9.165 L 3.072,8.834 A 5,5 0 1 0 4,5 H 7 V 7 H 1 V 1 H 3 V 3.12 A 6.987,6.987 0 0 1 15,8 Z"
       id="path14" />
  </g>
</svg>
