<?xml version="1.0" encoding="UTF-8" standalone="no"?>
<svg
   xmlns:dc="http://purl.org/dc/elements/1.1/"
   xmlns:cc="http://creativecommons.org/ns#"
   xmlns:rdf="http://www.w3.org/1999/02/22-rdf-syntax-ns#"
   xmlns:svg="http://www.w3.org/2000/svg"
   xmlns="http://www.w3.org/2000/svg"
   xmlns:sodipodi="http://sodipodi.sourceforge.net/DTD/sodipodi-0.dtd"
   xmlns:inkscape="http://www.inkscape.org/namespaces/inkscape"
   viewBox="0 0 16 16"
   version="1.1"
   id="svg19"
   sodipodi:docname="saveAs.svg"
   inkscape:export-filename="..\Image_saveAs.png"
   inkscape:export-xdpi="96"
   inkscape:export-ydpi="96"
   inkscape:version="1.0.1 (3bc2e813f5, 2020-09-07)">
  <metadata
     id="metadata23">
    <rdf:RDF>
      <cc:Work
         rdf:about="">
        <dc:format>image/svg+xml</dc:format>
        <dc:type
           rdf:resource="http://purl.org/dc/dcmitype/StillImage" />
      </cc:Work>
    </rdf:RDF>
  </metadata>
  <sodipodi:namedview
     pagecolor="#ffffff"
     bordercolor="#666666"
     borderopacity="1"
     objecttolerance="10"
     gridtolerance="10"
     guidetolerance="10"
     inkscape:pageopacity="0"
     inkscape:pageshadow="2"
     inkscape:window-width="1810"
     inkscape:window-height="1057"
     id="namedview21"
     showgrid="false"
     inkscape:zoom="51.625"
     inkscape:cx="8"
     inkscape:cy="8"
     inkscape:window-x="102"
     inkscape:window-y="-8"
     inkscape:window-maximized="1"
     inkscape:current-layer="svg19"
     inkscape:document-rotation="0" />
  <defs
     id="defs4">
    <style
       id="style2">.icon-canvas-transparent,.icon-vs-out{fill:#f6f6f6;}.icon-canvas-transparent{opacity:0;}.icon-vs-action-blue{fill:#00539c;}.icon-vs-bg{fill:#424242;}</style>
  </defs>
  <title
     id="title6">SaveAs_16x</title>
  <g
     id="canvas">
    <path
       class="icon-canvas-transparent"
       d="M16,0V16H0V0Z"
       id="path8" />
  </g>
  <g
     id="outline">
    <path
       class="icon-vs-out"
       d="M15.906,7.544a2.543,2.543,0,0,1-.75,1.812l-5.795,5.8L5.973,16H4.623l.5-2H2.086L0,11.914V0H14V5.109a2.455,2.455,0,0,1,1.157.626A2.537,2.537,0,0,1,15.906,7.544Z"
       id="path11" />
  </g>
  <g
     id="iconBg">
    <path
       class="icon-vs-action-blue"
       d="M1,1V11.5L2.5,13H4V9H8.27l3.265-3.265A2.511,2.511,0,0,1,13,5.053V1ZM11,5H3V2h8ZM5,11H6.27l-.531.531L5.372,13H5Z"
       id="path14" />
    <path
       class="icon-vs-bg"
       d="M5.907,14.985l.735-2.943,5.6-5.6a1.655,1.655,0,0,1,2.208,0,1.562,1.562,0,0,1,0,2.207l-5.6,5.6Zm1.638-2.431L7.281,13.61l1.057-.263,5.4-5.4a.561.561,0,0,0,0-.793.629.629,0,0,0-.793,0Z"
       id="path16" />
  </g>
</svg>
