<?xml version="1.0" encoding="UTF-8" standalone="no"?>
<svg
   xmlns:dc="http://purl.org/dc/elements/1.1/"
   xmlns:cc="http://creativecommons.org/ns#"
   xmlns:rdf="http://www.w3.org/1999/02/22-rdf-syntax-ns#"
   xmlns:svg="http://www.w3.org/2000/svg"
   xmlns="http://www.w3.org/2000/svg"
   xmlns:sodipodi="http://sodipodi.sourceforge.net/DTD/sodipodi-0.dtd"
   xmlns:inkscape="http://www.inkscape.org/namespaces/inkscape"
   viewBox="0 0 16 16"
   version="1.1"
   id="svg7"
   sodipodi:docname="separated.svg"
   inkscape:export-filename="..\Image_separated.png"
   inkscape:export-xdpi="96"
   inkscape:export-ydpi="96"
   inkscape:version="1.0.1 (3bc2e813f5, 2020-09-07)">
  <metadata
     id="metadata13">
    <rdf:RDF>
      <cc:Work
         rdf:about="">
        <dc:format>image/svg+xml</dc:format>
        <dc:type
           rdf:resource="http://purl.org/dc/dcmitype/StillImage" />
      </cc:Work>
    </rdf:RDF>
  </metadata>
  <defs
     id="defs11" />
  <sodipodi:namedview
     pagecolor="#ffffff"
     bordercolor="#666666"
     borderopacity="1"
     objecttolerance="10"
     gridtolerance="10"
     guidetolerance="10"
     inkscape:pageopacity="0"
     inkscape:pageshadow="2"
     inkscape:window-width="1810"
     inkscape:window-height="1057"
     id="namedview9"
     showgrid="false"
     inkscape:zoom="54.1875"
     inkscape:cx="7.6678201"
     inkscape:cy="8"
     inkscape:window-x="102"
     inkscape:window-y="-8"
     inkscape:window-maximized="1"
     inkscape:current-layer="svg7"
     inkscape:document-rotation="0" />
  <style
     id="style2">.icon-canvas-transparent{opacity:0;fill:#f6f6f6}.icon-vs-out{fill:#f6f6f6}.icon-vs-bg{fill:#424242}</style>
  <path
     class="icon-canvas-transparent"
     d="M16 16H0V0h16v16z"
     id="canvas" />
  <path
     class="icon-vs-out"
     d="M 16,7 H 12.414 L 13,7.586 V 8.414 L 12.414,9 H 16 v 7 H 9 V 12 H 0 V 4 H 9 V 0 h 7 z"
     id="outline"
     style="display:none;fill:#f9f9f9"
     inkscape:label="outline-old" />
  <path
     id="rect834"
     style="opacity:0.99945;fill:#f6f6f6;fill-opacity:1;stroke-width:0.835254"
     d="M 9 0 L 9 7 L 16 7 L 16 0 L 9 0 z M 0 4 L 0 12 L 8 12 L 8 8.5 L 6 8.5 L 6 7.5 L 8 7.5 L 8 4 L 0 4 z M 9 9 L 9 16 L 16 16 L 16 9 L 9 9 z "
     inkscape:label="outline" />
  <path
     class="icon-vs-bg"
     d="m 10,1 v 5 h 5 V 1 Z m 0,14 h 5 V 10 H 10 Z M 5,6.522 7,6.521 6.96,5 H 1 v 6 H 6.96 L 7,9.521 H 5 Z"
     id="iconBg"
     sodipodi:nodetypes="ccccccccccccccccccc"
     style="display:inline"
     sodipodi:insensitive="true"
     inkscape:label="iconBg" />
  <path
     id="path859"
     style="display:inline;fill:#efefef;fill-opacity:1"
     d="M 8.6640625,3.329 7,4.94 V 6.5 H 5 v 3 h 2 v 1.56 L 8.6394117,12.712 13.396,8 Z"
     sodipodi:nodetypes="cccccccccc"
     inkscape:label="outlineAction" />
  <path
     class="icon-vs-bg"
     d="M 11.999,8.02 8.645,11.312 7.938,10.605 10.011,8.521 H 6 v -1 L 10.011,7.52 7.938,5.436 8.645,4.729 Z"
     id="iconBg-4"
     style="display:inline;fill:#388a34;fill-opacity:1"
     sodipodi:nodetypes="cccccccccc"
     inkscape:label="Action" />
</svg>
