<?xml version="1.0" encoding="UTF-8" standalone="no"?>
<svg
   xmlns:dc="http://purl.org/dc/elements/1.1/"
   xmlns:cc="http://creativecommons.org/ns#"
   xmlns:rdf="http://www.w3.org/1999/02/22-rdf-syntax-ns#"
   xmlns:svg="http://www.w3.org/2000/svg"
   xmlns="http://www.w3.org/2000/svg"
   xmlns:sodipodi="http://sodipodi.sourceforge.net/DTD/sodipodi-0.dtd"
   xmlns:inkscape="http://www.inkscape.org/namespaces/inkscape"
   viewBox="0 0 16 16"
   version="1.1"
   id="svg7"
   sodipodi:docname="stepClock.svg"
   inkscape:version="1.0.1 (3bc2e813f5, 2020-09-07)"
   inkscape:export-filename="..\Image_stepClock.png"
   inkscape:export-xdpi="96"
   inkscape:export-ydpi="96">
  <title
     id="title833">stepClock</title>
  <metadata
     id="metadata13">
    <rdf:RDF>
      <cc:Work
         rdf:about="">
        <dc:format>image/svg+xml</dc:format>
        <dc:type
           rdf:resource="http://purl.org/dc/dcmitype/StillImage" />
        <dc:title>stepClock</dc:title>
      </cc:Work>
    </rdf:RDF>
  </metadata>
  <defs
     id="defs11" />
  <sodipodi:namedview
     pagecolor="#ffffff"
     bordercolor="#666666"
     borderopacity="1"
     objecttolerance="10"
     gridtolerance="10"
     guidetolerance="10"
     inkscape:pageopacity="0"
     inkscape:pageshadow="2"
     inkscape:window-width="1810"
     inkscape:window-height="1057"
     id="namedview9"
     showgrid="false"
     inkscape:zoom="51.0625"
     inkscape:cx="8"
     inkscape:cy="8.0881273"
     inkscape:window-x="102"
     inkscape:window-y="-8"
     inkscape:window-maximized="1"
     inkscape:current-layer="svg7"
     inkscape:document-rotation="0" />
  <style
     id="style2">.st0{fill:#f6f6f6}.st1{fill:#424242}.st2{fill:#388a34}</style>
  <path
     class="st0"
     d="M 1.334,8 H 0 V 0 h 1.334 l 5.332,4 z"
     id="outline"
     sodipodi:nodetypes="cccccc"
     style="fill:#efefef;fill-opacity:1" />
  <path
     class="st2"
     d="M5 4L1 7V1l4 3z"
     id="color_x5F_action"
     inkscape:label="colorAction" />
  <circle
     style="fill:#f6f6f6"
     id="path850"
     cx="10"
     cy="10"
     r="6"
     inkscape:label="outline-3" />
  <g
     id="g848"
     inkscape:label="clock"
     transform="translate(4)">
    <path
       class="st1"
       d="M 6,10 V 7 H 5 v 4 h 3 v -1 z"
       id="path5"
       style="fill:#424242" />
    <path
       class="st1"
       d="m 6,5 a 5,5 0 0 0 -5,5 c 0,2.762 2.238,5 5,5 2.762,0 5,-2.238 5,-5 A 5,5 0 0 0 6,5 Z m 0,8.881 A 3.882,3.882 0 1 1 6.001,6.118 3.882,3.882 0 0 1 6,13.88 Z"
       id="path7"
       style="fill:#424242" />
    <path
       class="st2"
       d="M 6,6.119 A 3.882,3.882 0 1 0 6.001,13.882 3.882,3.882 0 0 0 6,6.12 Z M 8,11 H 5 V 7 h 1 v 3 h 2 z"
       id="icon_x5F_fg"
       style="fill:#f0eff1" />
  </g>
</svg>
