<?xml version="1.0" encoding="UTF-8" standalone="no"?>
<svg
   xmlns:dc="http://purl.org/dc/elements/1.1/"
   xmlns:cc="http://creativecommons.org/ns#"
   xmlns:rdf="http://www.w3.org/1999/02/22-rdf-syntax-ns#"
   xmlns:svg="http://www.w3.org/2000/svg"
   xmlns="http://www.w3.org/2000/svg"
   xmlns:sodipodi="http://sodipodi.sourceforge.net/DTD/sodipodi-0.dtd"
   xmlns:inkscape="http://www.inkscape.org/namespaces/inkscape"
   viewBox="0 0 16 16"
   version="1.1"
   id="svg18"
   sodipodi:docname="updateGrid.svg"
   inkscape:version="1.0.1 (3bc2e813f5, 2020-09-07)"
   inkscape:export-filename="..\Image_updateGrid.png"
   inkscape:export-xdpi="96"
   inkscape:export-ydpi="96">
  <title
     id="title843">update Grid</title>
  <metadata
     id="metadata24">
    <rdf:RDF>
      <cc:Work
         rdf:about="">
        <dc:format>image/svg+xml</dc:format>
        <dc:type
           rdf:resource="http://purl.org/dc/dcmitype/StillImage" />
        <dc:title>update Grid</dc:title>
      </cc:Work>
    </rdf:RDF>
  </metadata>
  <defs
     id="defs22" />
  <sodipodi:namedview
     pagecolor="#ffffff"
     bordercolor="#666666"
     borderopacity="1"
     objecttolerance="10"
     gridtolerance="10"
     guidetolerance="10"
     inkscape:pageopacity="0"
     inkscape:pageshadow="2"
     inkscape:window-width="1810"
     inkscape:window-height="1057"
     id="namedview20"
     showgrid="false"
     inkscape:zoom="51.625"
     inkscape:cx="10.024213"
     inkscape:cy="8"
     inkscape:window-x="102"
     inkscape:window-y="-8"
     inkscape:window-maximized="1"
     inkscape:current-layer="svg18"
     inkscape:document-rotation="0" />
  <style
     id="style2">.st0{fill:#f6f6f6}.st1{fill:none}.st2{fill:#424242}.st3{fill:#00539c}.st4{fill:#f0eff1}</style>
  <path
     class="st0"
     d="M 16,1 V 16 H 1 V 1 Z"
     id="outline"
     sodipodi:nodetypes="ccccc"
     style="display:inline;fill:#f6f6f6;fill-opacity:1" />
  <path
     class="st2"
     d="M 2,2 V 15 H 15 V 2 Z M 6,14 H 3 V 12 H 6 Z M 6,11 H 3 V 9 h 3 z m 4,3 H 7 v -2 h 3 z m 0,-3 H 7 V 9 h 3 z m 4,3 h -3 v -2 h 3 z m 0,-3 H 11 V 9 h 3 z M 14,8 H 11 V 6 h 3 z M 14,5 H 11 V 3 h 3 z"
     id="path7"
     style="display:inline"
     sodipodi:nodetypes="ccccccccccccccccccccccccccccccccccccccccccccc" />
  <path
     id="path13"
     style="display:inline;fill:#efefef;fill-opacity:1"
     d="M 3,3 V 5 H 6 V 3 Z m 4,0 v 2 h 3 V 3 Z m 4,0 v 2 h 3 V 3 Z M 3,6 V 8 H 6 V 6 Z m 4,0 v 2 h 3 V 6 Z m 4,0 v 2 h 3 V 6 Z M 3,9 v 2 H 6 V 9 Z m 4,0 v 2 h 3 V 9 Z m 4,0 v 2 h 3 V 9 Z m -8,3 v 2 h 3 v -2 z m 4,0 v 2 h 3 v -2 z m 4,0 v 2 h 3 v -2 z" />
  <path
     id="path881"
     style="fill:#efefef;fill-opacity:1;stroke-width:0.977795"
     d="M 1 0 L 1 2.9394531 A 4.5 4.5 0 0 0 0.5 5 A 4.5 4.5 0 0 0 4 9.3867188 L 4 10 L 9 10 L 9 7.0605469 A 4.5 4.5 0 0 0 9.5 5 A 4.5 4.5 0 0 0 6 0.61328125 L 6 0 L 1 0 z "
     inkscape:label="outlineAction" />
  <path
     class="icon-vs-action-blue"
     d="M 4.169,7.358 3.837,8.302 A 3.507,3.507 0 0 1 1.5,5 3.49,3.49 0 0 1 3.226,2 H 2 V 1 H 5 V 4 H 4 V 2.712 A 2.502,2.502 0 0 0 2.5,5 c 0,1.059 0.671,2.007 1.669,2.358 z M 8.5,5 A 3.507,3.507 0 0 0 6.163,1.698 L 5.831,2.642 A 2.503,2.503 0 0 1 7.5,5 2.502,2.502 0 0 1 6,7.288 V 6 H 5 V 9 H 8 V 8 H 6.774 A 3.488,3.488 0 0 0 8.5,5 Z"
     id="path8"
     style="fill:#00539c"
     inkscape:label="colorAction" />
</svg>
