<?xml version="1.0" encoding="UTF-8" standalone="no"?>
<svg
   viewBox="0 0 16 16"
   version="1.1"
   id="svg23"
   sodipodi:docname="EmulatorP1.svg"
   inkscape:version="1.1.2 (0a00cf5339, 2022-02-04, custom)"
   inkscape:export-filename="..\Icon_Emulator32.png"
   inkscape:export-xdpi="192"
   inkscape:export-ydpi="192"
   inkscape:label="iconOutline"
   xmlns:inkscape="http://www.inkscape.org/namespaces/inkscape"
   xmlns:sodipodi="http://sodipodi.sourceforge.net/DTD/sodipodi-0.dtd"
   xmlns:xlink="http://www.w3.org/1999/xlink"
   xmlns="http://www.w3.org/2000/svg"
   xmlns:svg="http://www.w3.org/2000/svg"
   xmlns:rdf="http://www.w3.org/1999/02/22-rdf-syntax-ns#"
   xmlns:cc="http://creativecommons.org/ns#"
   xmlns:dc="http://purl.org/dc/elements/1.1/">
  <metadata
     id="metadata27">
    <rdf:RDF>
      <cc:Work
         rdf:about="">
        <dc:format>image/svg+xml</dc:format>
        <dc:type
           rdf:resource="http://purl.org/dc/dcmitype/StillImage" />
        <dc:title>EmulatorP1</dc:title>
      </cc:Work>
    </rdf:RDF>
  </metadata>
  <sodipodi:namedview
     pagecolor="#ffffff"
     bordercolor="#666666"
     borderopacity="1"
     objecttolerance="10"
     gridtolerance="10"
     guidetolerance="10"
     inkscape:pageopacity="0"
     inkscape:pageshadow="2"
     inkscape:window-width="1920"
     inkscape:window-height="1017"
     id="namedview25"
     showgrid="false"
     inkscape:zoom="32"
     inkscape:cx="2.421875"
     inkscape:cy="6.375"
     inkscape:window-x="1912"
     inkscape:window-y="-8"
     inkscape:window-maximized="1"
     inkscape:current-layer="svg23"
     inkscape:document-rotation="0"
     showguides="true"
     inkscape:guide-bbox="true"
     inkscape:pagecheckerboard="0">
    <sodipodi:guide
       position="3,12"
       orientation="0,1"
       id="guide878"
       inkscape:label=""
       inkscape:locked="false"
       inkscape:color="rgb(0,0,255)" />
  </sodipodi:namedview>
  <defs
     id="defs4">
    <style
       id="style2">.icon-canvas-transparent,.icon-vs-out{fill:#f6f6f6;}.icon-canvas-transparent{opacity:0;}.icon-vs-bg{fill:#424242;}.icon-vs-fg{fill:#f0eff1;}.icon-vs-action-orange{fill:#c27d1a;}</style>
  </defs>
  <title
     id="title6">EmulatorP1</title>
  <path
     class="icon-vs-out"
     d="M 16,16 H 0 V 0 h 16 z"
     id="path11"
     inkscape:label="outline"
     style="display:inline;stroke-width:1.06905" />
  <path
     class="icon-vs-bg"
     d="M 1,1 V 15 H 15 V 1 Z M 14,13.833333 H 2 V 4.5 h 12 z"
     id="path14"
     sodipodi:nodetypes="cccccccccc"
     inkscape:label="iconBg"
     style="stroke-width:1.08012" />
  <path
     class="icon-vs-fg"
     d="M 2,13 H 14 V 3 H 2 Z"
     id="path17"
     style="display:inline;fill:#f6f6f6;fill-opacity:1;stroke-width:1.11803"
     sodipodi:nodetypes="ccccc"
     inkscape:label="iconFg" />
  <g
     id="layer1"
     inkscape:label="P1"
     sodipodi:insensitive="true">
    <path
       style="display:inline;fill:#ececec;fill-opacity:1;stroke-width:1.01432"
       sodipodi:type="inkscape:offset"
       inkscape:radius="1"
       inkscape:original="M 3.4296875 5 C 3.2019883 5.0030893 2.9961497 5.1985017 3 5.4433594 L 3 11.642578 C 2.9999003 11.754909 3.0723281 11.839639 3.1601562 11.900391 C 3.2479843 11.961141 3.3598843 12.000566 3.4785156 12 C 3.5972038 11.999434 3.7093782 11.959119 3.796875 11.898438 C 3.884372 11.837758 3.9569843 11.755689 3.9589844 11.644531 C 3.9589844 11.644531 3.9589844 11.642578 3.9589844 11.642578 L 3.9589844 9.0019531 L 7.7011719 8.984375 C 7.7266459 8.9844905 7.7511643 8.9746852 7.7695312 8.9570312 L 8.9707031 7.7734375 C 8.9895495 7.7549087 9.000114 7.7295539 9 7.703125 L 9 6.3574219 C 9.000114 6.3309929 8.9895501 6.3056384 8.9707031 6.2871094 L 7.6777344 5.0273438 C 7.6593674 5.0096917 7.6348491 4.9998844 7.609375 5 L 3.4316406 5 C 3.4316406 5 3.4296875 5 3.4296875 5 z M 3.9589844 5.9746094 L 7.2832031 5.9746094 L 8.0039062 6.6855469 L 8.0039062 7.2988281 L 7.2832031 8.0371094 L 3.9589844 8.046875 L 3.9589844 5.9746094 z "
       xlink:href="#path867"
       id="path881"
       inkscape:href="#path867"
       d="M 3.4160156,4 C 2.6245126,4.0107387 1.9872089,4.6455408 2,5.4589844 v 6.1835936 c -4.816e-4,0.542624 0.3577454,0.918181 0.5917969,1.080078 0.2481793,0.171664 0.5474463,0.278981 0.890625,0.277344 0.3421235,-0.0016 0.6388157,-0.108725 0.8847656,-0.279297 0.221564,-0.153657 0.582124,-0.521009 0.5917969,-1.058594 a 1.0001,1.0001 0 0 0 0,-0.01758 v -0.002 -1.6445311 L 7.6972656,9.984375 c 0.2849847,0.00129 0.5600734,-0.1090674 0.765625,-0.3066406 a 1.0001,1.0001 0 0 0 0.00781,-0.00781 L 9.671875,8.4863281 C 9.8827148,8.2790414 10.001275,7.9948875 10,7.6992188 V 6.3613281 C 10.001275,6.0656755 9.8827218,5.781508 9.671875,5.5742188 a 1.0001,1.0001 0 0 0 -0.00391,-0.00391 L 8.375,4.3105469 a 1.0001,1.0001 0 0 0 -0.00391,-0.00391 C 8.1655773,4.1091236 7.8905073,3.9987065 7.6054688,4 H 3.4316406 3.4296875 A 1.0001,1.0001 0 0 0 3.4160156,4 Z M 4.9589844,6.9746094 H 6.8730469 L 6.8984375,7 l -0.037109,0.039062 -1.9023437,0.00586 z"
       inkscape:label="pBg" />
    <path
       style="display:inline;fill:#ececec;fill-opacity:1;stroke-width:0.999582"
       sodipodi:type="inkscape:offset"
       inkscape:radius="1.0001702"
       inkscape:original="M 11.998047 5 C 11.941277 5 11.883062 5.0121395 11.828125 5.0390625 C 11.760455 5.0715665 11.703016 5.1142375 11.662109 5.1699219 L 10.373047 6.3535156 C 10.284317 6.4358576 10.232422 6.5450435 10.232422 6.6601562 C 10.232422 6.7709969 10.274273 6.8759264 10.351562 6.9589844 A 0.09832075 0.09832075 0 0 0 10.353516 6.9609375 C 10.434556 7.0436675 10.540418 7.0917969 10.652344 7.0917969 C 10.753007 7.0917969 10.849575 7.0519349 10.929688 6.9824219 A 0.09832075 0.09832075 0 0 0 10.931641 6.9804688 L 11.583984 6.3789062 L 11.583984 11.154297 L 10.414062 11.154297 C 10.291244 11.154297 10.180801 11.187587 10.105469 11.265625 C 10.030043 11.343661 10 11.454268 10 11.578125 C 10 11.701983 10.02992 11.813067 10.105469 11.890625 C 10.181015 11.968183 10.291549 12 10.414062 12 L 13.585938 12 C 13.708452 12 13.818985 11.96818 13.894531 11.890625 C 13.970077 11.813067 14 11.701982 14 11.578125 C 14 11.454268 13.96986 11.343662 13.894531 11.265625 C 13.819201 11.187585 13.708756 11.154297 13.585938 11.154297 L 12.416016 11.154297 L 12.416016 5.4863281 L 12.414062 5.5058594 C 12.428342 5.4377624 12.419064 5.3674562 12.396484 5.296875 C 12.362862 5.1808737 12.280938 5.0874813 12.169922 5.0371094 C 12.113576 5.0115463 12.054829 5 11.998047 5 z "
       xlink:href="#path876"
       id="path884"
       inkscape:href="#path876"
       d="m 11.998047,4 c -0.198745,0 -0.408976,0.043737 -0.607422,0.140625 -0.175503,0.084922 -0.375383,0.220009 -0.535156,0.4375 L 10.986328,4.4335938 9.6972656,5.6171875 a 1.0002702,1.0002702 0 0 0 -0.00391,0.00391 C 9.4240175,5.8710447 9.2324219,6.2444463 9.2324219,6.6601562 c 0,0.3626022 0.1459135,0.7216894 0.3867187,0.9804688 a 1.0002702,1.0002702 0 0 0 0.015625,0.015625 c 0.0013,0.00134 0.00259,0.00257 0.00391,0.00391 C 9.871828,7.8981746 10.216871,8.0407666 10.583984,8.0625 v 2.091797 h -0.169922 c -0.303549,0 -0.7114688,0.0888 -1.0273432,0.416015 C 9.0753105,10.892497 9,11.292532 9,11.578125 c 0,0.28493 0.072147,0.684824 0.3886719,1.009766 C 9.7090635,12.916815 10.118385,13 10.414062,13 h 3.171876 c 0.295693,0 0.705009,-0.08321 1.02539,-0.412109 C 14.927835,12.262955 15,11.863072 15,11.578125 c 0,-0.286115 -0.076,-0.685924 -0.386719,-1.007813 -0.315889,-0.327253 -0.723805,-0.416015 -1.027343,-0.416015 H 13.416016 V 5.4863281 a 1.0002702,1.0002702 0 0 0 -0.03906,-0.041016 c -0.0035,-0.1554127 0.0089,-0.3252537 -0.02539,-0.4355469 C 13.234992,4.6187208 12.946977,4.2916557 12.583984,4.1269531 12.392635,4.0401416 12.190415,4 11.998047,4 Z"
       inkscape:label="1Bg" />
    <path
       id="path867"
       style="display:inline;fill:#000000;fill-opacity:1;stroke-width:1.01432"
       inkscape:label="pBorde"
       d="M 3.4296875,5 C 3.2019883,5.0030893 2.9961497,5.1985017 3,5.4433594 v 6.1992186 c -9.97e-5,0.112331 0.072328,0.197061 0.1601562,0.257813 0.087828,0.06075 0.1997281,0.100176 0.3183594,0.09961 0.1186882,-5.66e-4 0.2308626,-0.04088 0.3183594,-0.101562 0.087497,-0.06068 0.1601093,-0.142749 0.1621094,-0.253907 6.8e-6,-6.67e-4 6.8e-6,-0.0013 0,-0.002 V 9.0019531 L 7.701,8.984375 C 7.726474,8.9844905 7.751633,8.974685 7.77,8.957031 L 8.971,7.7734375 C 8.9898464,7.7549087 9.000114,7.7295539 9,7.703125 V 6.3574219 C 9.000114,6.3309929 8.989847,6.3056379 8.971,6.2871089 L 7.678,5.0273438 C 7.659633,5.0096917 7.6344741,4.9998844 7.609,5 H 3.4316406 c -6.5e-4,-6.5e-6 -0.0013,-6.5e-6 -0.00195,0 z M 3.9589844,5.9746094 H 7.283 L 8.004,6.6855469 V 7.2988281 L 7.283,8.0371094 3.9589844,8.046875 Z"
       sodipodi:nodetypes="sccsssccccccccccccssccccccc" />
    <path
       id="path876"
       style="display:inline;fill:#000000;fill-opacity:1;stroke-width:0.999582"
       inkscape:label="1Borde"
       d="m 11.998047,5 c -0.05677,0 -0.114985,0.01214 -0.169922,0.039063 -0.06767,0.032504 -0.125109,0.075175 -0.166016,0.1308594 l -1.289062,1.1835937 c -0.08873,0.082342 -0.140625,0.1915278 -0.140625,0.3066406 0,0.1108406 0.04185,0.2157702 0.11914,0.2988282 a 0.09832075,0.09832075 0 0 0 0.002,0.00195 c 0.08104,0.08273 0.186902,0.1308594 0.298828,0.1308594 0.100663,0 0.197231,-0.039862 0.277344,-0.109375 a 0.09832075,0.09832075 0 0 0 0.002,-0.00195 l 0.652343,-0.6015626 v 4.7753913 h -1.169922 c -0.122818,0 -0.233261,0.03329 -0.308593,0.111328 C 10.030136,11.343662 10,11.454268 10,11.578125 c 0,0.123858 0.02992,0.234942 0.105469,0.3125 C 10.181015,11.968183 10.291548,12 10.414062,12 h 3.171876 c 0.122515,0 0.233047,-0.03182 0.308593,-0.109375 C 13.970077,11.813067 14,11.701982 14,11.578125 c 0,-0.123857 -0.03014,-0.234463 -0.105469,-0.3125 -0.07533,-0.07804 -0.185775,-0.111328 -0.308593,-0.111328 H 12.416016 V 5.4863281 l -0.002,0.019531 c 0.01428,-0.068097 0.005,-0.1384032 -0.01758,-0.2089844 C 12.362814,5.1808734 12.280938,5.0874813 12.169922,5.0371094 12.113576,5.0115463 12.054829,5 11.998047,5 Z" />
    <path
       id="path858"
       style="display:inline;fill:#d03533;fill-opacity:1;stroke-width:0.986039"
       inkscape:label="p"
       d="M 3.4321741,5.096882 C 3.2655969,5.099142 3.0942235,5.2583442 3.0971059,5.441641 v 6.201812 c -1.113e-4,0.125251 0.1907749,0.258996 0.3812845,0.258086 0.1905095,-9.09e-4 0.3810278,-0.136803 0.3832101,-0.258086 V 8.9046398 L 7.701,8.8677743 8.902,7.7027982 V 6.3565044 L 7.61,5.096882 Z M 3.8616005,5.8769234 H 7.323 l 0.778,0.7684853 v 0.6933702 l -0.778,0.7954496 -3.4613995,0.00963 z"
       sodipodi:nodetypes="cccscccccccccccccc" />
    <path
       id="path858-1"
       style="display:inline;fill:#d03533;fill-opacity:1;stroke-width:0.961319"
       inkscape:label="1"
       d="m 11.997998,5.0969304 c -0.04295,0 -0.08507,0.010114 -0.126367,0.030352 -0.05617,0.026981 -0.100353,0.060072 -0.130084,0.1005424 l -1.302687,1.198919 c -0.07268,0.06745 -0.10964,0.1456489 -0.10964,0.2333339 0,0.087684 0.03201,0.165884 0.09478,0.2333339 0.06607,0.06745 0.142677,0.1005426 0.228574,0.1005426 0.07599,0 0.145775,-0.028034 0.211847,-0.085364 l 0.817663,-0.7550158 v 5.0992006 h -1.26738 c -0.211436,0 -0.317772,0.10855 -0.317772,0.32439 0,0.21584 0.106337,0.324392 0.317772,0.324392 h 3.170308 c 0.211437,0 0.317774,-0.108552 0.317774,-0.324392 0,-0.21584 -0.106337,-0.32439 -0.317774,-0.32439 H 12.317629 V 5.4858201 c 0.0099,-0.047214 0.005,-0.1005423 -0.01487,-0.161247 -0.02643,-0.091058 -0.08549,-0.1568206 -0.174682,-0.1972903 -0.0446,-0.020234 -0.08713,-0.030352 -0.130083,-0.030352 z"
       sodipodi:nodetypes="scccscscccsssssscccss" />
  </g>
</svg>
