<?xml version="1.0" encoding="UTF-8" standalone="no"?>
<svg
   width="16"
   height="16"
   viewBox="0 0 4.2333328 4.2333328"
   version="1.1"
   id="svg8"
   sodipodi:docname="plugin.svg"
   inkscape:version="1.2.1 (9c6d41e410, 2022-07-14)"
   inkscape:export-filename="..\Icon_plugin.png"
   inkscape:export-xdpi="102.34653"
   inkscape:export-ydpi="102.34653"
   xmlns:inkscape="http://www.inkscape.org/namespaces/inkscape"
   xmlns:sodipodi="http://sodipodi.sourceforge.net/DTD/sodipodi-0.dtd"
   xmlns="http://www.w3.org/2000/svg"
   xmlns:svg="http://www.w3.org/2000/svg"
   xmlns:rdf="http://www.w3.org/1999/02/22-rdf-syntax-ns#"
   xmlns:cc="http://creativecommons.org/ns#"
   xmlns:dc="http://purl.org/dc/elements/1.1/">
  <defs
     id="defs2">
    <inkscape:path-effect
       effect="spiro"
       id="path-effect957"
       is_visible="true"
       lpeversion="1" />
    <inkscape:path-effect
       effect="spiro"
       id="path-effect938"
       is_visible="true"
       lpeversion="1" />
    <inkscape:path-effect
       effect="spiro"
       id="path-effect930"
       is_visible="true"
       lpeversion="1" />
    <inkscape:path-effect
       effect="spiro"
       id="path-effect920"
       is_visible="true"
       lpeversion="1" />
    <inkscape:path-effect
       effect="spiro"
       id="path-effect916"
       is_visible="true"
       lpeversion="1" />
    <inkscape:path-effect
       effect="spiro"
       id="path-effect885"
       is_visible="true"
       lpeversion="1" />
    <inkscape:path-effect
       effect="spiro"
       id="path-effect857"
       is_visible="true"
       lpeversion="1" />
    <inkscape:path-effect
       effect="spiro"
       id="path-effect851"
       is_visible="true"
       lpeversion="1" />
  </defs>
  <sodipodi:namedview
     id="base"
     pagecolor="#ffffff"
     bordercolor="#666666"
     borderopacity="1.0"
     inkscape:pageopacity="0.0"
     inkscape:pageshadow="2"
     inkscape:zoom="50.875"
     inkscape:cx="5.1400491"
     inkscape:cy="8"
     inkscape:document-units="px"
     inkscape:current-layer="layer1"
     inkscape:document-rotation="0"
     showgrid="false"
     units="px"
     inkscape:pagecheckerboard="true"
     showguides="true"
     inkscape:lockguides="false"
     inkscape:guide-bbox="true"
     inkscape:window-width="1920"
     inkscape:window-height="1017"
     inkscape:window-x="1912"
     inkscape:window-y="-4"
     inkscape:window-maximized="1"
     inkscape:object-paths="false"
     inkscape:snap-intersection-paths="true"
     inkscape:showpageshadow="2"
     inkscape:deskcolor="#d1d1d1">
    <sodipodi:guide
       position="0,2.6458333"
       orientation="0,1"
       id="guide833"
       inkscape:label=""
       inkscape:locked="false"
       inkscape:color="rgb(0,0,255)" />
    <sodipodi:guide
       position="0,0.26458333"
       orientation="0,1"
       id="guide835"
       inkscape:label=""
       inkscape:locked="false"
       inkscape:color="rgb(0,0,255)" />
    <sodipodi:guide
       position="3.96875,4.2333333"
       orientation="-1,0"
       id="guide837"
       inkscape:label=""
       inkscape:locked="false"
       inkscape:color="rgb(0,0,255)" />
    <sodipodi:guide
       position="2.778125,3.3072917"
       orientation="-0.70710678,0.70710678"
       id="guide853"
       inkscape:label=""
       inkscape:locked="false"
       inkscape:color="rgb(0,0,255)" />
    <sodipodi:guide
       position="2.7781249,3.3072917"
       orientation="0.70710678,0.70710678"
       id="guide887"
       inkscape:label=""
       inkscape:locked="false"
       inkscape:color="rgb(0,0,255)" />
    <sodipodi:guide
       position="7.5926564,2.753864"
       orientation="1,0"
       id="guide910"
       inkscape:locked="false" />
    <sodipodi:guide
       position="3.058758,3.0266586"
       orientation="-0.70710678,0.70710678"
       id="guide912"
       inkscape:locked="false" />
    <sodipodi:guide
       position="2.497492,3.0266587"
       orientation="0.70710678,0.70710678"
       id="guide932"
       inkscape:locked="false" />
    <sodipodi:guide
       position="3.9687499,3.96875"
       orientation="0,1"
       id="guide1046"
       inkscape:label=""
       inkscape:locked="false"
       inkscape:color="rgb(0,0,255)" />
  </sodipodi:namedview>
  <metadata
     id="metadata5">
    <rdf:RDF>
      <cc:Work
         rdf:about="">
        <dc:format>image/svg+xml</dc:format>
        <dc:type
           rdf:resource="http://purl.org/dc/dcmitype/StillImage" />
      </cc:Work>
    </rdf:RDF>
  </metadata>
  <g
     inkscape:label="Capa 1"
     inkscape:groupmode="layer"
     id="layer1">
    <path
       id="path847-7"
       style="display:none;fill:#4d4d4d;fill-opacity:1;fill-rule:evenodd;stroke:none;stroke-width:0.264583"
       d="m 2.9104167,2.7781251 a 0.396875,0.396875 0 0 0 0.396875,0.396875 0.396875,0.396875 0 0 0 0.280603,-0.1162719 c 0,10e-8 0.1220634,-0.1012892 0.1834513,-0.076481 0.1539358,0.062207 0.197404,0.115785 0.197404,0.4573363 V 2.1166667 c 0,0.3415512 -0.043468,0.3951296 -0.197404,0.4573366 C 3.709958,2.5988113 3.5878947,2.4975223 3.5878947,2.4975223 A 0.396875,0.396875 0 0 0 3.3072917,2.3812502 0.396875,0.396875 0 0 0 2.9104167,2.7781251 Z" />
    <path
       id="path1048"
       style="fill:#f6f6f6;fill-opacity:1;fill-rule:nonzero;stroke:none;stroke-width:4.21988"
       inkscape:label="plugBg"
       d="M 10.490234,0.99609375 C 9.1853718,1.001593 7.9954245,2.1927599 7.9941406,3.4980469 7.9945825,4.0370459 8.2763607,4.5223688 8.5996094,4.953125 8.5008354,4.969037 8.4343957,4.998047 8.0019531,4.998047 h -2 A 1.0005921,1.0005921 0 0 0 4.9980469,6.0019531 v 2 c 0,0.4324415 -0.029014,0.4988825 -0.044922,0.5976563 C 4.52237,8.2763581 4.0370459,7.9945825 3.4980469,7.9941406 2.1927599,7.9954206 1.0015947,9.1853718 0.99609375,10.490234 0.99092875,11.801947 2.1863252,13.006532 3.4980469,13.007812 4.0370459,13.007371 4.5223688,12.725594 4.953125,12.402344 4.969037,12.501114 4.998047,12.567557 4.998047,13 v 2 a 1.0005921,1.0005921 0 0 0 1.0039062,1.003906 h 2 c 0.6877591,0 1.1662237,-0.0061 1.6835938,-0.25 0.366463,-0.172778 0.562261,-0.486956 0.71875,-0.78125 a 2.4999999,2.4999999 0 0 0 0.0957,0.002 2.4999999,2.4999999 0 0 0 0.08984,-0.002 c 0.157642,0.294412 0.3587,0.607813 0.726562,0.78125 0.51737,0.243927 0.995835,0.25 1.683594,0.25 h 2 A 1.0005921,1.0005921 0 0 0 16.003906,15 V 6.0019531 A 1.0005921,1.0005921 0 0 0 15,4.9980469 h -2 c -0.432441,0 -0.498882,-0.029014 -0.597656,-0.044922 0.32325,-0.430755 0.605027,-0.9160791 0.605468,-1.4550781 -0.0013,-1.309394 -1.202742,-2.50287252 -2.511718,-2.50195315 z M 12.998047,12.408203 c 0.0038,0.02504 0.0098,0.10788 0.0098,0.08984 4.2e-5,-0.05053 -0.0049,0.06902 -0.01172,0.107422 A 2.4999999,2.4999999 0 0 0 13,12.474609 2.4999999,2.4999999 0 0 0 12.998,12.408199 Z m -4.9960939,0.02344 A 2.4999999,2.4999999 0 0 0 8,12.474609 2.4999999,2.4999999 0 0 0 8.00391,12.585938 c -0.0049,-0.02127 -0.0098,-0.129242 -0.00977,-0.08789 -1.31e-5,0.01336 0.0056,-0.05479 0.00781,-0.06641 z m 4.9628909,0.458984 c -1.57e-4,0.02656 -0.01843,0.136965 -0.0098,0.09375 0.0095,-0.04726 -0.01831,0.06739 -0.03125,0.09961 a 2.4999999,2.4999999 0 0 0 0.04102,-0.193359 z m -4.9277346,0.002 a 2.4999999,2.4999999 0 0 0 0.03125,0.16211 c -0.00542,-0.0093 -0.028163,-0.103636 -0.021484,-0.07031 0.00848,0.04232 -0.00976,-0.06686 -0.00977,-0.0918 z m 0.1269531,0.470703 a 2.4999999,2.4999999 0 0 0 0.089844,0.208985 c -0.030824,-0.05244 -0.08383,-0.171116 -0.060547,-0.115235 0.017462,0.04191 -0.023147,-0.06509 -0.029297,-0.09375 z m 4.6640625,0.02149 c -0.0012,0.01176 -0.03487,0.104394 -0.02148,0.07226 0.02641,-0.06338 -0.0287,0.06154 -0.06836,0.13086 a 2.4999999,2.4999999 0 0 0 0.08984,-0.203125 z m -0.128906,0.279296 c -0.08865,0.166197 -0.188186,0.328336 -0.121094,0.228516 0.127601,-0.189846 -0.470884,0.538156 -0.308594,0.376953 l -0.01563,-0.01367 a 2.4999999,2.4999999 0 0 0 0.445313,-0.591797 z m -4.3789065,0.03711 a 2.4999999,2.4999999 0 0 0 0.4277344,0.554687 l -0.015625,0.01367 C 8.894711,14.430784 8.2942729,13.702783 8.421875,13.89263 8.478088,13.97626 8.391703,13.83865 8.3203125,13.701224 Z"
       transform="scale(0.26458333)" />
    <path
       id="rect844"
       style="display:inline;fill:#4d4d4d;fill-opacity:1;fill-rule:evenodd;stroke:none;stroke-width:0.29541"
       d="M 2.778125,0.52916666 A 0.396875,0.396875 0 0 0 2.38125,0.92604165 0.396875,0.396875 0 0 0 2.4975219,1.2066447 c -1e-7,0 0.1012891,0.1220634 0.076481,0.1834513 C 2.5117962,1.5440317 2.4582178,1.5875 2.1166666,1.5875 H 1.5875 v 0.5291666 c 0,0.3415512 -0.043468,0.3951295 -0.197404,0.4573365 C 1.328708,2.598811 1.2066447,2.4975219 1.2066447,2.4975219 A 0.396875,0.396875 0 0 0 0.92604165,2.38125 0.396875,0.396875 0 0 0 0.52916666,2.778125 0.396875,0.396875 0 0 0 0.92604165,3.175 0.396875,0.396875 0 0 0 1.2066447,3.058728 c 0,0 0.1220634,-0.1012894 0.1834513,-0.076481 C 1.5440318,3.0444538 1.5875,3.0980319 1.5875,3.4395833 V 3.96875 h 0.5291666 c 0.3415513,0 0.3951295,-0.043468 0.4573365,-0.1974041 0.024808,-0.061388 -0.076481,-0.1834512 -0.076481,-0.1834512 A 0.396875,0.396875 0 0 1 2.38125,3.3072916 0.396875,0.396875 0 0 1 2.778125,2.9104166 0.396875,0.396875 0 0 1 3.175,3.3072916 0.396875,0.396875 0 0 1 3.058728,3.5878947 c 0,0 -0.1012891,0.1220634 -0.076481,0.1834512 C 3.0444538,3.9252821 3.0980321,3.96875 3.4395833,3.96875 H 3.96875 V 1.5875 H 3.4395833 C 3.0980321,1.5875 3.0444538,1.5440317 2.9822468,1.390096 2.9574389,1.3287081 3.058728,1.2066447 3.058728,1.2066447 A 0.396875,0.396875 0 0 0 3.175,0.92604165 0.396875,0.396875 0 0 0 2.778125,0.52916666 Z"
       inkscape:label="plugFg" />
  </g>
</svg>
