<?xml version="1.0" encoding="UTF-8" standalone="no"?>
<svg
   xmlns:dc="http://purl.org/dc/elements/1.1/"
   xmlns:cc="http://creativecommons.org/ns#"
   xmlns:rdf="http://www.w3.org/1999/02/22-rdf-syntax-ns#"
   xmlns:svg="http://www.w3.org/2000/svg"
   xmlns="http://www.w3.org/2000/svg"
   xmlns:sodipodi="http://sodipodi.sourceforge.net/DTD/sodipodi-0.dtd"
   xmlns:inkscape="http://www.inkscape.org/namespaces/inkscape"
   viewBox="0 0 16 16"
   version="1.1"
   id="svg23"
   sodipodi:docname="PluginEditor.svg"
   inkscape:version="1.0.1 (3bc2e813f5, 2020-09-07)"
   inkscape:export-filename="..\Icon_PluginEditor.png"
   inkscape:export-xdpi="1536"
   inkscape:export-ydpi="1536"
   inkscape:label="iconOutline">
  <metadata
     id="metadata27">
    <rdf:RDF>
      <cc:Work
         rdf:about="">
        <dc:format>image/svg+xml</dc:format>
        <dc:type
           rdf:resource="http://purl.org/dc/dcmitype/StillImage" />
        <dc:title>PluginEditor</dc:title>
      </cc:Work>
    </rdf:RDF>
  </metadata>
  <sodipodi:namedview
     pagecolor="#ffffff"
     bordercolor="#666666"
     borderopacity="1"
     objecttolerance="10"
     gridtolerance="10"
     guidetolerance="10"
     inkscape:pageopacity="0"
     inkscape:pageshadow="2"
     inkscape:window-width="1755"
     inkscape:window-height="1046"
     id="namedview25"
     showgrid="false"
     inkscape:zoom="51.625"
     inkscape:cx="8"
     inkscape:cy="8"
     inkscape:window-x="154"
     inkscape:window-y="-11"
     inkscape:window-maximized="1"
     inkscape:current-layer="svg23"
     inkscape:document-rotation="0" />
  <defs
     id="defs4">
    <style
       id="style2">.icon-canvas-transparent,.icon-vs-out{fill:#f6f6f6;}.icon-canvas-transparent{opacity:0;}.icon-vs-bg{fill:#424242;}.icon-vs-fg{fill:#f0eff1;}.icon-vs-action-orange{fill:#c27d1a;}</style>
  </defs>
  <title
     id="title6">PluginEditor</title>
  <path
     class="icon-vs-out"
     d="M 16,15 H 0 V 1 h 16 z"
     id="path11"
     inkscape:label="outline"
     style="display:inline" />
  <path
     class="icon-vs-bg"
     d="M 1,2 V 14 H 15 V 2 Z M 14,13 H 2 V 5 h 12 z"
     id="path14"
     sodipodi:nodetypes="cccccccccc"
     inkscape:label="iconBg" />
  <path
     class="icon-vs-fg"
     d="M 2,13 H 14 V 5 H 2 Z"
     id="path17"
     style="display:inline;fill:#ffffff"
     sodipodi:nodetypes="ccccc"
     inkscape:label="iconFg" />
  <path
     class="icon-vs-out"
     d="m 13,6.9185445 -1.305874,1.3058737 0.652937,0.6529368 -1.95881,1.95881 c -0.6972667,0.697267 -1.6244924,1.080532 -2.6126712,1.080532 -0.4977835,0 -0.9844847,-0.100665 -1.4379387,-0.29553 L 4.959734,13 H 4.7159217 L 3,11.284078 V 11.041189 L 4.3797562,9.6605098 C 3.7979313,8.2992242 4.0805319,6.6950499 5.1638345,5.6117473 L 7.122645,3.6529369 7.7755818,4.3058737 9.082379,3 Z"
     id="outline-0"
     style="display:inline;fill:#ececec;stroke:none;stroke-width:0.923532;stroke-opacity:1;fill-opacity:1"
     sodipodi:nodetypes="cccssccccccscccc"
     inkscape:label="plugOutline" />
  <path
     class="icon-vs-bg"
     d="M 11.041189,6.2646842 9.7353158,7.5705578 8.4294422,6.2646842 9.7353158,4.9588105 9.082379,4.3058737 7.7765053,5.6117473 7.122645,4.9588105 5.8167713,6.2646842 C 4.8479867,7.2334688 4.75471,8.7425194 5.5230883,9.8239749 l -1.3391208,1.3391211 0.6529368,0.652936 1.3381973,-1.33912 c 0.4783893,0.339859 1.0371259,0.517177 1.5995567,0.517177 0.7092722,0 1.419468,-0.269671 1.959734,-0.809937 L 11.040266,8.877355 10.388253,8.2234946 11.694126,6.917621 Z M 9.082379,9.5302918 C 8.3629479,10.248799 7.1946804,10.249723 6.4752493,9.533986 l -0.00924,-0.00924 C 5.750277,8.8034725 5.7512006,7.6361286 6.4697081,6.9166975 L 7.122645,6.2637606 9.7353158,8.8755079 Z"
     id="iconBg-7"
     style="display:inline;fill:#ce472c;fill-opacity:1;stroke-width:0.923532"
     sodipodi:nodetypes="cccccccsccccscccccccccccc"
     inkscape:label="plugBg" />
  <path
     class="icon-vs-fg"
     d="M 9.082379,9.5302918 C 8.3629479,10.248799 7.1946804,10.249723 6.4752493,9.533986 l -0.00924,-0.00924 C 5.750277,8.8034725 5.7512006,7.6361286 6.4697081,6.9166975 L 7.122645,6.2637606 9.7353158,8.8755079 Z"
     id="iconFg-6"
     style="display:inline;fill:#f6f6f6;stroke-width:0.923532;fill-opacity:1"
     sodipodi:nodetypes="ccccccc"
     inkscape:label="plugFg" />
</svg>
